<?xml version="1.0" encoding="utf-8"?>
<!-- Generator: Adobe Illustrator 25.4.1, SVG Export Plug-In . SVG Version: 6.00 Build 0)  -->
<svg version="1.1" id="Calque_1" xmlns="http://www.w3.org/2000/svg" xmlns:xlink="http://www.w3.org/1999/xlink" x="0px" y="0px"
	 viewBox="0 0 1000 1000" style="enable-background:new 0 0 1000 1000;" xml:space="preserve">
<g>
	<path d="M322.1,775.1c27,32.5,55.5,59.1,96.3,69.4c-0.5,1.3-0.9,2.6-1.4,3.9c-4.4-0.4-9.4,0.3-13.1-1.5
		c-13.8-6.7-28.6-12.5-40.4-21.9c-16.1-12.7-29.8-28.2-44.5-42.7c-1.9-1.9-3.7-4.3-4.5-6.8c-1-3.2-0.8-6.8-1.2-10.2
		c3.4,0.1,7.2-0.8,10.1,0.5c14.4,6.3,28.3,14.1,42.9,19.8c22.3,8.7,45.4,15.2,67.5,24.2c44.9,18.3,80.6,48.8,110.1,86.8
		c3.3,4.2,6.1,9.2,7.7,14.3c1,3.2,0.5,8.3-1.5,10.7c-1.6,1.8-7.2,2.1-9.9,0.8c-8.7-4.1-17.6-8.5-25.3-14.2
		C482,883.7,445.3,879,406,885c-9.8,1.5-20,1.7-29.9,1.2c-14.6-0.6-26.2-7.7-33.8-20c-4.6-7.4-8.3-15.5-11.4-23.6
		c-10.4-27.2-25.5-51.6-43.7-74.1c-3.8-4.7-8.9-8.2-13.4-12.3c-1,0.6-1.9,1.3-2.9,1.9c2,6.1,3.8,12.4,6.1,18.4
		c11.5,29.6,23.7,59,34.6,88.8c9.5,26.1,26.7,44.6,51.9,55.4c71.1,30.3,145.4,42.5,222.2,33c157-19.4,276-97.2,343.5-241
		c69.3-147.7,50.7-291.1-46.3-421.8c-69.1-93-164.5-146-278.4-165.2c-57.4-9.7-114.8-7.6-171.5,6.2c-32.4,7.9-59.2-4.2-83.9-22.3
		c-24.9-18.3-48.5-38.4-72.8-57.6c-5.1-4-10.8-7.1-16.2-10.7c-1,0.7-1.9,1.3-2.9,2c1.8,7.1,2.5,14.7,5.5,21.3
		c11,24.6,23,48.7,34.2,73.2c4.2,9.3,7.4,19.1,10.5,28.8c0.9,2.8,0.1,6.2,0.1,9.3c-0.8,0.2-1.6,0.4-2.4,0.7
		c-1.1-1.4-2.6-2.7-3.2-4.2c-4.9-12.6-9.1-25.5-14.6-37.8c-9.7-21.8-20.3-43.3-30-65.1c-2.8-6.3-4.7-13.2-5.6-20
		c-0.5-4,0.8-10.1,3.5-12s8.6-0.7,12.6,0.7c4.2,1.5,7.9,4.5,11.4,7.3c22.7,17.7,44.8,36.3,68.3,53c14.7,10.4,30.6,20.5,47.5,25.8
		c13,4,29,2.6,42.8-0.5C623.6,82.8,819.5,165.1,915.6,325c129.8,215.8,42.9,491.4-188.3,597.6c-71.5,32.8-146.6,45.8-224.9,39.8
		c-40.3-3.1-79.4-12.3-117.8-25.4c-61.1-20.8-113.8-54.7-159.1-100.4c-19.9-20-40-39.8-59.9-59.9c-4.3-4.3-8.4-8.8-11.8-13.8
		c-1.6-2.3-2.3-6.5-1.2-8.9c0.7-1.7,5.1-2.6,7.8-2.4c23.1,1.6,44.6,8.1,64.6,20.7c-8-13.6-21.6-23.7-26.2-39.8
		c16.1-3.9,32.6,3.8,63.8,28.8c3.5-14,12.2-17.3,21.8-5.8c15,18.1,27.9,37.9,40.8,57.6c5.2,8,8.4,17.4,12,26.4
		c14.5,36.7,27.7,43.8,67.1,38.8c17.6-2.2,35.7-3,53.4-2.1c21.8,1,40.5,11.7,58.4,23.4c8.8,5.7,17.9,10.9,26.9,16.3
		c0.6-0.6,1.2-1.1,1.9-1.7c-1.8-3.5-3.2-7.4-5.6-10.5c-31.2-41.2-69-74.3-118.6-91.1c-31.9-10.8-63.9-21-93.6-37
		C326.4,775.4,325.5,775.5,322.1,775.1L322.1,775.1z M294.9,884.1c-19.7-44.6-37.1-87.7-82.6-109.6c-15.2-7.3-30.6-13.2-48.1-12.7
		C206,803.5,244,849.1,294.9,884.1L294.9,884.1z M207.7,737.9c6.9,8.6,11.9,15.3,17.5,21.6c27.7,31.3,52,64.7,68.1,103.6
		c3.2,7.8,8,15,12.7,22c3,4.5,7.3,8.2,10.4,11.7c-7.3-19.7-14.7-39.4-22-59.1c-9.3-25.4-18.4-50.7-37.6-70.9
		C243.9,753,228.6,743.6,207.7,737.9L207.7,737.9z"/>
	<g>
		<path d="M322.1,775.1c6.5,7.7,13.2,15.2,20.3,22.3c7.1,7.1,14.6,13.9,22.6,20c8,6.1,16.5,11.5,25.5,15.9c9,4.4,18.4,7.9,28.2,10.2
			c0.5,0.1,0.8,0.6,0.7,1.1l0,0.1l0,0l-1.4,3.9c-0.2,0.4-0.6,0.7-1,0.6l0,0c-2.8-0.2-5.7,0-8.7-0.3c-1.5-0.1-3.1-0.4-4.6-1.1l-4-1.8
			c-5.3-2.4-10.6-4.8-15.9-7.3c-5.3-2.6-10.5-5.3-15.4-8.5c-2.5-1.6-4.9-3.3-7.2-5.2c-2.3-1.8-4.5-3.7-6.8-5.6
			c-8.9-7.7-17-16-25.2-24.3l-6.1-6.2l-6.2-6.2c-1.1-1.1-2.1-2.4-2.9-3.8c-0.4-0.7-0.8-1.5-1.1-2.3c-0.3-0.8-0.5-1.6-0.7-2.4
			c-0.6-3.1-0.6-6.1-0.9-8.9c-0.1-1.1,0.7-2,1.7-2.2c0.1,0,0.2,0,0.3,0l0,0c1.5,0,3.2-0.1,5-0.2c1.8,0,3.8,0,5.9,0.8
			c3.1,1.4,6.3,2.8,9.4,4.2c6.2,2.9,12.3,5.9,18.5,8.8c6.2,2.9,12.3,5.5,18.7,7.8c6.4,2.4,12.8,4.6,19.2,6.7
			c12.9,4.3,25.9,8.5,38.8,13.3c3.2,1.2,6.4,2.5,9.6,3.8l4.8,2l4.7,2.2c1.6,0.7,3.1,1.4,4.7,2.2l4.6,2.4l2.3,1.2l2.3,1.3l4.5,2.5
			c12,6.9,23.3,14.9,33.9,23.7c10.6,8.8,20.7,18.3,29.9,28.5c4.6,5.1,9.2,10.3,13.5,15.7l3.2,4c1.1,1.4,2.2,2.9,3.2,4.5
			c2,3.1,3.6,6.4,4.8,9.9c0.2,0.5,0.3,0.8,0.4,1.4c0.2,0.6,0.3,1.1,0.4,1.7c0.2,1.1,0.2,2.2,0.2,3.2c-0.1,2.1-0.3,4.2-1.3,6.4
			c-0.2,0.6-0.5,1.1-0.9,1.7c-0.2,0.3-0.4,0.6-0.6,0.9c-0.1,0.1-0.3,0.3-0.5,0.5c-0.2,0.2-0.4,0.4-0.6,0.5c-1.5,1.1-2.7,1.4-3.9,1.7
			c-2.3,0.5-4.3,0.5-6.5,0.1c-0.3,0-0.6-0.1-0.9-0.2c-0.3-0.1-0.6-0.1-0.9-0.2c-0.5-0.1-1.4-0.5-1.7-0.7l-2.3-1.1
			c-1.6-0.7-3.1-1.5-4.7-2.3c-3.1-1.5-6.2-3.1-9.3-4.9c-3-1.8-6.1-3.6-8.9-5.8l-4.1-2.9l-2-1.4c-0.7-0.5-1.4-0.9-2.1-1.3l-4.2-2.6
			l-4.4-2.4c-0.7-0.4-1.4-0.8-2.2-1.2l-2.2-1c-1.5-0.7-3-1.4-4.5-2c-6.1-2.6-12.4-4.6-18.8-6.2c-6.4-1.5-13-2.5-19.5-3.1
			c-6.6-0.5-13.2-0.7-19.9-0.4c-6.6,0.3-13.3,0.9-19.9,1.9l-5.1,0.7c-1.8,0.2-3.5,0.4-5.3,0.6c-3.5,0.3-7,0.5-10.5,0.6
			c-3.5,0.1-7,0.1-10.5,0c-0.9,0-1.7,0-2.7-0.1c-0.9-0.1-1.9-0.1-2.8-0.2c-0.9-0.1-1.9-0.2-2.8-0.4c-0.9-0.2-1.9-0.3-2.8-0.5
			c-7.4-1.6-14.5-5.3-20.1-10.5c-2.8-2.6-5.3-5.5-7.4-8.6c-0.5-0.8-1.1-1.6-1.5-2.3c-0.5-0.8-0.9-1.5-1.4-2.3
			c-0.9-1.5-1.8-3.1-2.6-4.6c-1.7-3.1-3.2-6.3-4.6-9.5c-0.7-1.6-1.4-3.2-2.1-4.9l-1.9-4.8c-2.5-6.2-5.2-12.3-8.2-18.3
			c-6-11.9-12.9-23.4-20.7-34.3c-3.9-5.5-7.9-10.8-12.1-16l-1.6-1.9c-0.5-0.5-0.9-1.1-1.4-1.6c-1-1.1-2.2-2.1-3.4-3.2
			c-2.4-2.1-5.1-4.2-7.9-6.7l6.8,0.5l-2.8,1.9l2.2-6.4c1.7,5.1,3.2,10.1,4.9,14.8c0.4,1.2,0.9,2.3,1.3,3.5l1.4,3.7l2.9,7.3
			l11.7,29.2c3.9,9.7,7.8,19.5,11.6,29.3c1.9,4.9,3.8,9.8,5.6,14.8l1.4,3.7l1.4,3.5c0.4,1.2,0.9,2.3,1.5,3.4c0.5,1.1,1,2.3,1.6,3.4
			c2.1,4.5,4.7,8.7,7.5,12.7c2.8,4,6,7.7,9.5,11.1c3.5,3.4,7.3,6.5,11.3,9.3c4,2.7,8.3,5.1,12.8,7.2l3.4,1.5l3.6,1.5l7.2,2.9
			c2.4,1,4.8,1.9,7.3,2.8l7.3,2.7c4.9,1.7,9.8,3.3,14.7,5c5,1.5,9.9,3,14.9,4.4c39.8,11.2,81.2,16.6,122.4,15.6
			c20.6-0.5,41.1-2.7,61.6-6.1c20.4-3.3,40.7-7.8,60.5-13.6c19.9-5.7,39.3-12.8,58.1-21.3l7-3.2l6.9-3.4c4.7-2.2,9.2-4.7,13.7-7.1
			c2.3-1.2,4.5-2.5,6.7-3.8l6.7-3.8l6.6-4.1c2.2-1.4,4.4-2.7,6.5-4.1c17.2-11.3,33.5-23.9,48.7-37.8c15.1-13.9,29.1-29.1,41.9-45.2
			c25.6-32.2,45.9-68.6,61.8-106.6c7.9-19,14.5-38.6,19.7-58.5c0.3-1.2,0.7-2.5,1-3.7l0.9-3.8l1.7-7.5c0.6-2.5,1-5,1.5-7.5l1.5-7.6
			l1.2-7.6c0.4-2.5,0.9-5.1,1.1-7.6l0.9-7.6c0.1-1.3,0.3-2.5,0.5-3.8l0.3-3.8c1.9-20.4,2-41,0.4-61.4c-1.7-20.4-5.1-40.7-10.2-60.5
			l-0.9-3.7l-1.1-3.7l-2.1-7.4c-0.7-2.5-1.6-4.9-2.3-7.3c-0.8-2.4-1.6-4.9-2.4-7.3l-2.6-7.2c-0.9-2.4-1.7-4.8-2.7-7.2l-2.9-7.1
			c-0.5-1.2-0.9-2.4-1.5-3.6l-1.6-3.5c-8.2-18.8-17.8-37.1-28.5-54.7l-2-3.3l-2.1-3.3l-4.2-6.5c-1.4-2.2-2.8-4.3-4.3-6.4l-4.4-6.4
			c-2.9-4.2-6-8.4-9-12.6c-3.1-4.1-6.3-8.1-9.5-12.2c-12.9-16-26.6-31.3-41.8-45.1c-30-28-64.6-50.8-101.7-68.2
			c-1.2-0.5-2.3-1.2-3.5-1.7l-3.5-1.5l-7.1-3l-7.1-3l-7.2-2.7l-7.2-2.7c-2.4-0.9-4.8-1.8-7.3-2.6l-14.7-4.8l-1.8-0.6l-1.9-0.5
			l-3.7-1l-7.4-2.1c-2.5-0.7-5-1.4-7.4-2l-7.5-1.7l-7.5-1.7c-2.5-0.6-5-1.2-7.5-1.6l-15.2-2.9c-40.4-7.1-81.8-8.2-122.5-3.1
			c-10.2,1.2-20.3,2.9-30.4,4.9l-7.5,1.6l-7.5,1.7c-2.3,0.6-5.4,1.2-8.2,1.8c-1.4,0.3-2.9,0.4-4.3,0.7c-1.5,0.2-2.9,0.4-4.4,0.5
			l-4.4,0.3c-1.5,0.1-2.9,0-4.4,0c-3,0.1-5.9-0.3-8.8-0.5c-5.8-0.7-11.6-1.9-17.2-3.6c-11.1-3.4-21.4-8.5-30.8-14.5
			c-2.4-1.4-4.6-3-6.9-4.6l-3.4-2.4l-1.7-1.2l-1.6-1.2c-4.3-3.2-8.5-6.4-12.7-9.6c-8.4-6.5-16.6-13.1-24.8-19.7l-24.5-19.7l-6.1-4.9
			l-3.1-2.4c-0.9-0.7-1.8-1.4-2.7-2c-3.8-2.7-8.2-5.2-13-8.3l11.1-0.2l-2.9,2l4-10.6c1.6,6.5,2.4,12.3,3.8,16.7
			c0.2,0.5,0.4,1.1,0.6,1.6c0.1,0.3,0.2,0.5,0.3,0.7l0.2,0.4l0.2,0.4l1.8,4l3.7,8c5,10.7,10.1,21.4,15.2,32.2l7.6,16.2l3.8,8.1
			l1.9,4.1c0.7,1.4,1.3,2.9,1.9,4.4c2.5,5.8,4.5,11.7,6.4,17.4l1.4,4.3l0.7,2.1l0.3,1.1l0.2,0.5l0.1,0.4l0.2,0.6
			c0.8,3.3,0.7,5.7,0.6,7.6c-0.1,1.8-0.2,3.2-0.2,3.9c0.1,4.5-3,8.4-7.2,9.6l-0.2,0l-2.4,0.7l-0.3,0.1c-3.9,1.1-8-0.5-10.2-3.6
			c-0.1-0.1-0.4-0.5-1.1-1.2c-0.6-0.7-1.6-1.8-2.6-3.5c-0.2-0.4-0.5-0.9-0.7-1.5c-0.3-0.7-0.3-0.7-0.4-0.9l-0.4-1.1l-0.8-2.2
			l-3.2-8.7c-2.1-5.8-4.2-11.4-6.4-17c-1.1-2.8-2.2-5.5-3.4-8.1l-3.7-8.3c-2.5-5.5-5.1-11.1-7.7-16.6c-5.2-11.1-10.4-22.2-15.6-33.4
			l-1.9-4.2l-1-2.1c-0.3-0.7-0.7-1.6-1-2.4c-1.3-3.2-2.5-6.6-3.4-9.9c-0.9-3.4-1.6-6.8-2-10.3l-0.1-0.7l-0.1-1
			c0-0.7-0.1-1.3-0.1-1.9c0-1.2,0.1-2.3,0.2-3.5c0.3-2.3,0.7-4.5,1.7-6.9c0.5-1.2,1.1-2.5,2-4c0.5-0.8,1-1.5,1.8-2.3
			c0.3-0.4,0.8-0.8,1.3-1.2c0.5-0.4,1-0.8,1.5-1.1c2.2-1.4,4.3-1.9,5.8-2.1c1.6-0.2,3-0.3,4.2-0.2c2.5,0.1,4.5,0.5,6.5,0.9
			c1,0.2,1.9,0.5,2.9,0.8c0.5,0.1,0.9,0.3,1.4,0.5c0.5,0.2,1.1,0.4,1.6,0.6c4.3,1.8,7.3,4.2,10,6.2l7.3,5.7
			c9.7,7.6,19.2,15.4,28.8,22.9c9.6,7.6,19.1,15,28.9,22.1c9.8,7.1,19.6,13.9,29.7,19.4c5.1,2.8,10.2,5.2,15.4,7.2
			c2.6,1,5.3,1.9,7.6,2.4c2.4,0.6,4.9,1,7.6,1.2c5.2,0.4,10.8,0.2,16.3-0.5c2.8-0.3,5.6-0.8,8.4-1.3l8.9-1.8c24.6-5,49.5-8,74.6-8.9
			c50.1-1.9,100.4,4.6,148.4,18.7c48,14.2,93.7,36.2,134.7,65c41,28.8,77.3,64.4,106.2,105.3l5.3,7.7l2.7,3.9c0.9,1.3,1.7,2.6,2.5,4
			l5,8l2.5,4l2.4,4.1c1.6,2.7,3.2,5.4,4.7,8.1l4.5,8.2c2.9,5.6,5.8,11.1,8.4,16.8c10.8,22.6,19.5,46.2,26.3,70.3
			c13.3,48.3,18,99,13.5,148.9c-1.1,12.5-2.7,24.9-4.9,37.2c-2.2,12.3-5,24.5-8.3,36.6c-6.5,24.2-15.3,47.7-26,70.3
			c-10.7,22.6-23.5,44.2-37.9,64.7c-7.3,10.2-15,20-23.1,29.6c-8.1,9.5-16.6,18.7-25.5,27.4c-35.6,35.1-77.4,63.8-122.5,85
			c-45.1,21.2-93.7,35.1-143.2,40.6c-24.8,2.8-49.7,3.4-74.6,2.3l-9.3-0.6c-3.1-0.2-6.2-0.4-9.3-0.7l-4.7-0.4l-4.6-0.5
			c-3.1-0.3-6.2-0.7-9.3-1.1c-12.4-1.6-24.6-3.9-36.8-6.5c-12.2-2.6-24.2-5.8-36.1-9.4c-11.9-3.5-23.6-7.4-35.3-11.8
			c-11.6-4.4-23.1-9.3-34.3-14.7c-11.2-5.5-22.1-11.4-32.8-17.8c-21.3-12.9-41.4-27.7-60-44.1c-2.3-2.1-4.7-4.1-6.9-6.2l-6.8-6.4
			c-2.3-2.1-4.4-4.4-6.6-6.5c-2.2-2.2-4.4-4.4-6.5-6.5l-25.9-26.1l-25.9-26.1c-4.3-4.3-8.8-8.7-12.9-13.9c-1-1.3-2-2.6-3-4l-0.7-1.1
			c-0.4-0.6-0.7-1.1-0.9-1.7c-0.5-1.1-0.9-2.1-1.1-3.2c-0.5-2.1-0.7-4.2-0.2-6.8c0.1-0.6,0.3-1.4,0.6-2.1c0.2-0.6,0.8-1.6,1.2-1.9
			c0.5-0.5,0.8-0.8,1.2-1.1c0.4-0.3,0.7-0.5,1.1-0.7c0.3-0.2,0.7-0.3,0.9-0.5c0.6-0.3,1.1-0.5,1.7-0.6c2.1-0.6,3.9-0.9,6.2-0.9
			c0.3,0,0.6,0,0.8,0l0.6,0.1l1.2,0.1l2.4,0.2l4.7,0.5c1.6,0.2,3.1,0.4,4.7,0.7c6.3,1,12.5,2.4,18.6,4.3c12.2,3.7,23.8,9,34.5,15.8
			l-6.7,6.5c-3.7-6.3-8.9-12.2-14-18.6c-2.5-3.2-5-6.6-7.2-10.3c-2.2-3.7-4-7.8-5.2-12.1l0-0.1c-0.7-2.4,0.7-4.9,3.1-5.5
			c0.1,0,0.1,0,0.2-0.1c3.3-0.7,6.8-1.1,10.2-1c0.9,0,1.7,0.1,2.6,0.2l1.3,0.1l1.2,0.2l2.5,0.5l2.4,0.6c6.4,1.8,12.1,4.7,17.5,7.8
			c5.4,3.2,10.4,6.7,15.4,10.3c5,3.6,9.7,7.4,14.5,11.2l-6.7,2.2c0.5-2,1.2-4.1,2.1-6.1c0.9-2,2.1-4.1,4-5.9c0.9-0.9,2-1.8,3.3-2.5
			c1.3-0.7,2.8-1.1,4.3-1.3c3-0.3,5.7,0.7,7.8,1.9c2.1,1.2,3.8,2.7,5.4,4.3c0.8,0.8,1.5,1.6,2.1,2.4l1.8,2.3c2.4,3,4.8,6.1,7.1,9.2
			c9.3,12.3,17.8,25.2,26.1,38l3.1,4.8l1.6,2.4c0.5,0.8,1,1.6,1.6,2.5c2.2,3.5,3.9,7.1,5.5,10.7c3.1,7.2,5.5,14.5,8.5,21.3
			c3,6.9,6.3,13.6,10.7,19.2c2.2,2.8,4.7,5.2,7.6,7.2c2.8,2,6,3.4,9.4,4.3c6.8,1.9,14.3,2,21.7,1.6c3.7-0.2,7.5-0.6,11.2-1
			c3.8-0.5,7.7-0.9,11.5-1.2c7.7-0.7,15.4-1,23.1-1.1c3.9,0,7.7,0,11.6,0.1c3.9,0.1,7.7,0.2,11.6,0.6c7.9,0.8,15.6,2.8,22.9,5.7
			c3.6,1.4,7.2,3,10.7,4.8c3.5,1.7,6.9,3.6,10.2,5.6c3.3,2,6.6,4,9.8,6.1c3.2,2.1,6.4,4.2,9.6,6.2c6.5,4,13,7.9,19.6,11.9l-2.4,0.2
			l1.9-1.7l-0.4,2.4c-1.3-2.6-2.4-5.2-3.6-7.5c-0.3-0.6-0.6-1.1-1-1.7c-0.4-0.5-0.7-1-1.1-1.6l-2.6-3.3l-2.6-3.3
			c-0.9-1.1-1.8-2.2-2.6-3.3c-1.8-2.2-3.5-4.4-5.3-6.5c-7.2-8.5-14.8-16.7-23-24.4c-16.2-15.3-34.4-28.7-54.3-38.9l-7.6-3.6
			c-2.5-1.2-5.1-2.2-7.7-3.3c-2.5-1.2-5.2-2-7.8-3c-1.3-0.5-2.6-1-3.9-1.5l-4-1.4c-10.6-3.7-21.2-7.3-31.8-11.2
			c-10.6-3.9-21-7.9-31.3-12.5c-5.2-2.2-10.2-4.6-15.3-7.1c-2.5-1.3-5-2.5-7.5-3.9l-1.9-1l-0.9-0.5c-0.3-0.2-0.6-0.3-1-0.4
			C325,775.4,323.6,775.3,322.1,775.1L322.1,775.1L322.1,775.1z M322.1,775.1L322.1,775.1L322.1,775.1c1.4,0.2,2.8,0.2,4.2,0.4
			c0.3,0,0.7,0.2,1,0.3l0.9,0.5l1.9,1c2.5,1.3,5,2.5,7.6,3.7c5.1,2.4,10.2,4.7,15.4,6.8c10.4,4.3,20.9,8.2,31.5,11.9
			c10.6,3.7,21.3,7.2,31.9,10.7l4,1.3c1.3,0.4,2.7,0.9,4,1.4c2.6,1,5.3,1.8,7.9,2.9c2.6,1.1,5.2,2.1,7.8,3.3l7.7,3.6
			c20.3,10,38.9,23.2,55.5,38.5c8.3,7.6,16.1,15.8,23.5,24.4c1.9,2.1,3.7,4.3,5.5,6.5c0.9,1.1,1.8,2.2,2.7,3.3l2.6,3.3l2.6,3.3
			c0.4,0.5,0.9,1.2,1.3,1.8c0.4,0.6,0.8,1.3,1.2,1.9c1.4,2.6,2.5,5.2,3.8,7.6c0.4,0.8,0.2,1.8-0.4,2.4l0,0l-1.8,1.7
			c-0.7,0.6-1.6,0.7-2.4,0.2l0,0c-6.5-3.9-13.2-7.7-19.8-11.7c-3.3-2-6.6-4.1-9.8-6.1c-3.2-2-6.4-4-9.7-5.9c-3.3-1.9-6.6-3.7-10-5.3
			c-3.4-1.7-6.8-3.2-10.3-4.5c-7-2.7-14.2-4.4-21.6-5.1c-3.6-0.3-7.5-0.4-11.3-0.4c-3.8-0.1-7.6,0-11.4,0
			c-7.6,0.2-15.1,0.6-22.7,1.4c-3.8,0.4-7.5,0.8-11.3,1.3c-3.8,0.5-7.7,0.9-11.6,1.2c-7.8,0.5-15.8,0.6-23.8-1.5
			c-4-1.1-7.9-2.8-11.4-5.1c-3.5-2.4-6.5-5.3-9.1-8.4c-5.1-6.4-8.7-13.5-11.9-20.6c-3.2-7.1-5.7-14.4-8.7-21.2
			c-1.5-3.4-3.2-6.7-5.1-9.7l-6.3-9.5c-8.5-12.7-17-25.3-26.2-37.3c-2.3-3-4.7-6-7.1-8.9l-1.8-2.2c-0.6-0.7-1.1-1.3-1.7-1.9
			c-1.2-1.2-2.4-2.2-3.6-2.8c-1.2-0.7-2.3-0.9-3.1-0.8c-0.8,0.1-1.6,0.5-2.5,1.4c-0.9,0.9-1.7,2.1-2.3,3.6c-0.6,1.4-1.2,3-1.6,4.7
			c-0.6,2.2-2.8,3.6-5,3.1c-0.6-0.1-1.1-0.4-1.6-0.8l-0.1-0.1c-4.7-3.7-9.4-7.4-14.3-10.8c-4.8-3.4-9.7-6.8-14.8-9.7
			c-5-2.9-10.2-5.4-15.5-6.8l-2-0.5l-2-0.3l-1-0.2l-1-0.1c-0.7,0-1.3-0.1-2-0.1c-2.6,0-5.2,0.3-7.7,0.9l3.3-5.7
			c1,3.4,2.5,6.7,4.4,9.8c1.9,3.2,4.2,6.2,6.6,9.2c4.9,6.1,10.5,12.1,15,19.5c1.4,2.3,0.6,5.2-1.7,6.6c-1.6,1-3.5,0.9-5,0l-0.1,0
			c-10.1-6.2-20.9-11.1-32.3-14.4c-5.7-1.7-11.4-2.9-17.3-3.8l-4.4-0.6l-4.4-0.5l-4.2-0.3c-0.8,0-2.1,0.2-2.9,0.4
			c-0.4,0.1-0.8,0.3-0.5,0.2c0.1-0.1,0.2-0.1,0.4-0.4c0.1-0.1,0.5-0.7,0.6-1c0,0,0,0,0,0.1c-0.1,0.4-0.1,1.4,0.2,2.3
			c0.1,0.4,0.3,0.9,0.4,1.2c0.1,0.2,0.1,0.3,0.2,0.3l0.6,0.8c0.8,1.1,1.7,2.3,2.6,3.4c3.6,4.4,7.9,8.6,12.3,12.9l26.1,25.9
			l26.1,25.9c2.2,2.2,4.4,4.3,6.5,6.4c2.2,2.1,4.3,4.2,6.5,6.3l6.7,6.1c2.2,2.1,4.5,4,6.8,6c18.3,15.8,37.9,30.1,58.7,42.4
			c10.4,6.1,21.1,11.8,31.9,17c10.9,5.1,22.1,9.8,33.4,14c11.3,4.1,22.9,7.9,34.5,11.2c11.6,3.4,23.4,6.4,35.2,8.8
			c11.8,2.5,23.7,4.6,35.7,6.1c3,0.3,6,0.8,9,1l4.5,0.5l4.5,0.4c3,0.3,6,0.4,9,0.6l9,0.5c24.1,0.9,48.3,0.2,72.3-2.7
			c6-0.8,12-1.5,17.9-2.5c3-0.5,6-0.9,8.9-1.5l8.9-1.7c1.5-0.3,3-0.6,4.4-0.9l4.4-1l8.8-2l8.7-2.3l4.4-1.2c1.5-0.4,2.9-0.9,4.3-1.3
			c23.1-6.8,45.8-15.3,67.5-25.8C772,892.8,812.1,865,846.2,831c8.5-8.5,16.7-17.3,24.4-26.5c7.7-9.2,15.1-18.7,22-28.5
			c6.9-9.8,13.4-20,19.4-30.4c6-10.4,11.6-21,16.7-31.9c10.1-21.8,18.5-44.4,24.6-67.6c3.1-11.6,5.7-23.3,7.8-35.1
			c2.1-11.8,3.6-23.7,4.6-35.7c4.1-47.8-0.6-96.3-13.5-142.5c-6.5-23.1-14.9-45.6-25.4-67.2c-2.5-5.4-5.3-10.7-8.1-16.1l-4.3-7.9
			c-1.4-2.6-3-5.2-4.5-7.8l-2.3-3.9l-2.4-3.8l-4.8-7.6c-0.8-1.3-1.6-2.6-2.4-3.8l-2.6-3.7l-5.1-7.4c-27.8-39.1-62.6-73.1-102-100.5
			c-39.3-27.5-83.2-48.4-129.2-62c-46.1-13.5-94.3-19.5-142.2-17.6c-24,0.9-47.8,3.8-71.3,8.6l-9.1,1.8c-3.2,0.6-6.5,1.2-9.8,1.6
			c-6.6,0.8-13.4,1.1-20.3,0.6c-3.5-0.3-7-0.8-10.6-1.6c-1.8-0.4-3.6-1-5.2-1.5c-1.6-0.5-3.2-1.1-4.8-1.7
			c-6.3-2.4-12.2-5.2-17.9-8.3c-11.4-6.2-21.8-13.5-31.9-20.8c-10.1-7.3-19.9-15-29.5-22.6c-9.7-7.7-19.2-15.3-28.7-22.9l-7.2-5.6
			c-2.2-1.7-4.2-3-5.6-3.6c-0.2-0.1-0.3-0.1-0.5-0.2l-0.8-0.3c-0.5-0.2-1-0.3-1.6-0.4c-1-0.2-2-0.4-2.6-0.4c-0.3,0-0.4,0-0.3,0
			c0.1,0,0.6-0.1,1.5-0.6c0.2-0.2,0.4-0.3,0.6-0.4c0.2-0.2,0.4-0.3,0.4-0.4c0.2-0.3,0.3-0.4,0.4-0.5c0.1-0.1,0-0.1,0,0.1
			c-0.2,0.4-0.4,1.2-0.5,2c0,0.4-0.1,0.8-0.1,1.1c0,0.2,0,0.3,0,0.4c0,0.1,0,0.1,0,0.2l0.1,0.5c0.3,2.6,0.8,5.2,1.5,7.7
			c0.7,2.5,1.5,5.1,2.5,7.5c0.3,0.6,0.5,1.2,0.8,1.8l0.9,2.1l1.9,4.1c5,11.1,10.3,22.1,15.5,33.2c2.6,5.6,5.2,11.2,7.8,16.8l3.8,8.5
			c1.3,2.9,2.5,5.9,3.7,8.8c2.3,5.9,4.5,11.7,6.6,17.5l3.2,8.5l0.8,2.1l0.4,1c0.3,0.7-0.1-0.1-0.2-0.3c-0.3-0.4-0.2-0.3,0.2,0.1
			c0.4,0.4,1.1,1.1,1.9,2.3l-10.6-3.5l2.4-0.7l-7.3,9.6c0-2.3,0.2-3.9,0.3-5c0.1-1.1,0-1.7,0-1.3l-2.6-7.9c-1.8-5.5-3.7-10.9-5.9-16
			c-0.5-1.3-1.1-2.5-1.7-3.8l-1.8-4l-3.7-8l-7.6-16.1c-5.1-10.7-10.2-21.5-15.3-32.4l-3.8-8.2l-1.9-4.1l-0.5-1.3
			c-0.2-0.4-0.4-0.9-0.5-1.3c-0.3-0.9-0.6-1.7-0.9-2.6c-2.2-6.9-2.9-13-4.2-18c-1-4.1,0.6-8.3,3.9-10.6l0,0l2.9-2l0,0
			c3.4-2.4,7.8-2.3,11.1-0.1c4.1,2.7,8.7,5.3,13.6,8.7c1.2,0.8,2.4,1.8,3.6,2.7l3.1,2.5l6.2,4.9l24.5,19.8
			c8.1,6.6,16.3,13.1,24.5,19.4c4.1,3.2,8.2,6.3,12.4,9.4l1.6,1.2l1.5,1.1l3,2.2c2.1,1.4,4.1,2.8,6.2,4.1c8.3,5.3,17,9.6,26,12.3
			c4.5,1.4,9,2.2,13.6,2.8c2.3,0.1,4.6,0.4,6.9,0.4c1.2,0,2.3,0.1,3.5,0l3.5-0.2c1.2,0,2.3-0.3,3.4-0.4c1.1-0.2,2.3-0.3,3.4-0.5
			c2.3-0.5,4.4-0.9,7.2-1.5l7.8-1.8l7.9-1.6c10.5-2.1,21.1-3.9,31.8-5.1c42.6-5.3,86.1-4.1,128.3,3.4l15.7,3
			c2.6,0.5,5.2,1.1,7.8,1.7l7.8,1.8l7.8,1.8c2.6,0.7,5.2,1.4,7.7,2.1l7.7,2.2l3.9,1.1l1.9,0.5l1.9,0.6l15.3,5
			c2.6,0.8,5.1,1.8,7.6,2.7l7.5,2.8l7.5,2.8l7.4,3.2l7.4,3.2l3.7,1.6c1.2,0.5,2.4,1.2,3.6,1.7c38.8,18.3,75,42.4,106.4,71.8
			c15.9,14.5,30.2,30.6,43.6,47.3c3.3,4.2,6.6,8.4,9.8,12.7c3.1,4.3,6.3,8.6,9.3,13l4.5,6.6c1.5,2.2,3,4.4,4.4,6.7l4.3,6.8l2.2,3.4
			l2.1,3.4c11.1,18.3,21,37.3,29.5,57l1.6,3.7c0.5,1.2,1,2.5,1.5,3.7l3,7.5c1,2.5,1.9,5,2.8,7.5l2.7,7.6c0.9,2.5,1.7,5.1,2.5,7.7
			c0.8,2.6,1.7,5.1,2.4,7.7l2.2,7.8l1.1,3.9l1,3.9c5.2,20.8,8.8,42.1,10.4,63.6c1.6,21.4,1.3,43-0.7,64.4l-0.4,4
			c-0.1,1.3-0.3,2.7-0.5,4l-1,8c-0.3,2.7-0.8,5.3-1.2,8l-1.3,7.9l-1.6,7.9c-0.5,2.6-1,5.3-1.6,7.9l-1.8,7.8l-0.9,3.9
			c-0.3,1.3-0.7,2.6-1,3.9c-5.5,20.7-12.4,41-20.7,60.7c-8.3,19.7-17.7,38.8-28.5,57.3c-10.7,18.5-22.8,36.2-36.2,52.9
			c-13.4,16.7-28,32.4-43.9,46.9c-15.9,14.4-33,27.4-50.9,39.1c-2.2,1.5-4.5,2.9-6.8,4.3l-6.8,4.2l-7,4c-2.3,1.3-4.6,2.7-7,3.9
			c-4.7,2.5-9.4,5-14.3,7.3l-7.2,3.5l-7.3,3.3c-19.5,8.6-39.7,15.9-60.2,21.6c-20.5,5.8-41.4,10.2-62.4,13.5
			c-5.2,0.9-10.5,1.6-15.8,2.3c-5.2,0.8-10.6,1.2-15.9,1.8c-1.3,0.1-2.7,0.3-4,0.4l-4,0.3l-8,0.5c-2.7,0.2-5.3,0.2-8,0.3l-8,0.3
			c-42.7,0.8-85.4-5.2-126.4-17c-5.1-1.5-10.2-3.1-15.3-4.7c-5-1.7-10.1-3.4-15.1-5.2l-7.5-2.8c-2.5-1-5-1.9-7.4-2.9l-7.4-3
			l-3.7-1.5l-3.8-1.7c-5-2.4-9.9-5.2-14.5-8.4c-4.6-3.2-8.9-6.8-12.9-10.8c-4-3.9-7.6-8.3-10.8-12.9c-3.2-4.6-6.1-9.4-8.4-14.4
			c-0.6-1.2-1.1-2.5-1.7-3.8c-0.6-1.3-1.1-2.5-1.6-3.8l-1.5-3.8l-1.3-3.7c-1.8-4.9-3.6-9.8-5.5-14.7c-3.7-9.8-7.5-19.5-11.3-29.3
			l-11.5-29.3l-2.8-7.4l-1.4-3.7c-0.5-1.3-1-2.6-1.4-3.9c-1.8-5.2-3.2-10.2-4.8-15.1l0,0c-0.8-2.4,0.2-5,2.2-6.3l2.9-1.9l0,0
			c2.2-1.4,4.9-1.1,6.8,0.5c2.3,2.1,5,4.2,7.7,6.6c1.4,1.2,2.7,2.5,4,3.9c0.7,0.7,1.3,1.4,1.9,2.2l1.6,2.1c4.3,5.4,8.4,11,12.4,16.7
			c7.9,11.4,15,23.4,21.2,35.9c3.1,6.3,5.9,12.6,8.4,19.1l1.8,4.7c0.6,1.5,1.2,3.1,1.9,4.6c1.3,3,2.7,6,4.2,8.9
			c0.8,1.5,1.5,2.9,2.3,4.3c0.4,0.7,0.8,1.4,1.2,2.1c0.4,0.7,0.8,1.3,1.3,2c1.7,2.5,3.7,4.9,5.8,6.9c4.4,4.1,9.7,7,15.6,8.4
			c0.7,0.2,1.5,0.3,2.2,0.5c0.7,0.1,1.5,0.2,2.3,0.3c0.8,0.1,1.5,0.1,2.3,0.2c0.7,0.1,1.6,0.1,2.5,0.1c3.3,0.1,6.7,0.2,10,0.1
			c3.3,0,6.6-0.2,9.9-0.4c1.6-0.1,3.3-0.3,4.9-0.5l5-0.7c6.9-1,13.9-1.5,20.8-1.8c7-0.2,14,0,21,0.6c7,0.7,13.9,1.9,20.8,3.6
			c6.8,1.8,13.5,4,20,6.8c1.6,0.7,3.2,1.5,4.8,2.2l2.4,1.1c0.8,0.4,1.5,0.8,2.3,1.3c1.5,0.9,3.1,1.7,4.6,2.6l4.5,2.8
			c0.7,0.5,1.5,0.9,2.2,1.4l2.1,1.5l4.2,3c2.6,1.9,5.4,3.7,8.2,5.4c2.8,1.7,5.8,3.2,8.8,4.8c1.5,0.8,3,1.5,4.5,2.2l2.3,1.1
			c0.5,0.2,0.4,0.2,0.7,0.3c0.1,0,0.2,0.1,0.3,0.1c0.1,0,0.3,0.1,0.4,0.1c1.1,0.2,2.6,0.2,3.6,0c0.5-0.1,1-0.3,0.8-0.2
			c0,0-0.1,0.1-0.1,0.1c0,0-0.1,0.1,0,0c0-0.1,0.1-0.1,0.1-0.2c0.1-0.1,0.2-0.3,0.3-0.6c0.4-0.9,0.7-2.3,0.7-3.6
			c0-0.6,0-1.3-0.1-1.9c0-0.3-0.1-0.6-0.2-0.8c-0.1-0.3-0.2-0.7-0.3-1.1c-1-2.9-2.4-5.8-4-8.4c-0.8-1.3-1.7-2.6-2.7-3.9l-3.1-4
			c-4.2-5.3-8.5-10.4-13-15.5c-18-20.1-38.6-37.8-61.8-51.6l-4.4-2.5l-2.2-1.3l-2.2-1.2l-4.5-2.4c-1.5-0.8-3-1.5-4.5-2.2l-4.6-2.2
			l-4.6-2c-3.1-1.4-6.2-2.6-9.4-3.9c-12.6-5-25.5-9.2-38.4-13.8c-6.4-2.3-12.9-4.5-19.3-7c-6.4-2.4-12.8-5.2-18.9-8.2
			c-6.2-3-12.3-6-18.4-9c-3.1-1.5-6.1-2.9-9.2-4.3c-1.1-0.5-2.5-0.6-4.1-0.6c-1.6,0-3.3,0.2-5.2,0.1l2-2.2c0.3,3,0.2,5.9,0.7,8.5
			c0.2,1.3,0.6,2.4,1.3,3.5c0.6,1.1,1.4,2.2,2.3,3.2l6.1,6.2l6.1,6.3c8.1,8.4,16.1,16.7,24.7,24.4c2.2,1.9,4.3,3.8,6.6,5.6
			c2.2,1.8,4.5,3.5,6.9,5.1c4.8,3.2,9.8,6,15,8.6c5.2,2.6,10.4,5,15.7,7.6l3.9,1.9c1.2,0.5,2.5,0.8,3.9,1c2.8,0.3,5.7,0.1,8.7,0.4
			l-1,0.6l1.4-3.8l0.7,1.3c-9.8-2.6-19.3-6.2-28.3-10.8c-9-4.6-17.5-10.2-25.4-16.4c-7.9-6.2-15.3-13.2-22.3-20.4
			C335.1,790.5,328.5,782.9,322.1,775.1z"/>
		<path d="M294.9,884.1c-8.5-13.6-16.1-27.7-24.5-41l-3.1-5l-3.3-4.8c-0.5-0.8-1.1-1.6-1.6-2.4l-1.7-2.4c-1.1-1.6-2.2-3.1-3.4-4.7
			c-4.6-6.1-9.6-11.8-14.9-17.1c-0.6-0.7-1.3-1.3-2-1.9l-2.1-1.9l-2.1-1.9c-0.7-0.6-1.4-1.2-2.2-1.8l-4.3-3.5l-4.5-3.1l-2.3-1.6
			l-2.4-1.4l-4.7-2.8l-4.9-2.4l-2.5-1.2c-0.8-0.4-1.7-0.8-2.6-1.2c-14-6.3-27.7-10.7-41.5-10.3l6.7-17c10.7,10.7,21,21.7,31,32.7
			l7.5,8.3l7.5,8.3l15,16.5c10,11,20.1,21.8,30.5,32.4C273,863.6,283.8,873.9,294.9,884.1L294.9,884.1L294.9,884.1z M294.9,884.1
			L294.9,884.1L294.9,884.1c-13.5-6.7-26.3-15-38.5-23.9c-12.2-8.9-23.9-18.7-35.1-28.7c-5.6-5.1-11.1-10.2-16.5-15.4l-8.1-7.8
			l-8-7.9l-31.6-31.5c-3.9-3.9-3.9-10.2,0-14.1c1.9-1.9,4.3-2.8,6.7-2.9l0.1,0c9.1-0.3,18.1,1.1,26.5,3.5c8.4,2.4,16.2,5.9,23.7,9.4
			c0.9,0.5,1.8,0.9,2.8,1.4l2.8,1.6l5.6,3.2l5.4,3.6c0.9,0.6,1.8,1.2,2.7,1.8l2.5,2c1.7,1.3,3.4,2.7,5,4l4.7,4.4
			c0.8,0.7,1.6,1.4,2.3,2.2l2.2,2.3l2.1,2.3c0.7,0.8,1.5,1.5,2.1,2.4l3.9,4.9l1,1.2l0.9,1.3l1.8,2.6c2.4,3.4,4.6,7,6.7,10.5
			c4,7.2,7.8,14.5,10.9,22l1.2,2.8l1.1,2.8l2.2,5.6c1.3,3.8,2.8,7.6,4,11.4l1.9,5.7l1.8,5.7l0.9,2.9l0.8,2.8
			C293.7,880.1,294.2,882.1,294.9,884.1z"/>
		<path d="M207.7,737.9c3,2.8,5.8,5.7,8.7,8.5c2.8,2.9,5.7,5.8,8.5,8.5c2.9,2.7,5.9,5.6,8.8,8.4c2.9,2.8,5.8,5.8,8.6,8.7
			c11.3,11.8,21.9,24.3,31.5,37.7c4.7,6.7,9.3,13.6,13.5,20.8c2.1,3.6,4.2,7.2,6.1,10.9c2,3.7,3.8,7.4,5.6,11.2l2.6,5.7l1.2,2.5
			c0.4,0.8,0.8,1.6,1.2,2.4c1.6,3.1,3.6,6.3,5.7,9.5c1.1,1.6,2.2,3.2,3.3,4.8l0.8,1.2l0.8,1.1c0.4,0.6,0.9,1.2,1.4,1.8
			c1,1.2,2.2,2.5,3.6,3.8c1.3,1.4,2.8,2.8,4.5,4.6l-16.7,10.2c-3-7.9-5.8-15.8-8.7-23.7l-8.5-23.8c-2.7-7.9-5.5-15.9-8.1-23.8
			c-2.7-7.9-5.4-15.6-8.5-23c-1.5-3.7-3.2-7.4-5-11c-1.8-3.6-3.7-7.1-5.8-10.5c-4.1-6.8-8.9-13.2-14.4-19.1
			c-5.4-5.9-11.6-11.2-18.4-15.7C223,744.9,215.5,741.2,207.7,737.9z M207.7,737.9c8.4,1.2,16.8,3.2,24.8,6.6
			c4,1.7,7.9,3.7,11.7,5.9c3.8,2.3,7.4,4.8,10.9,7.5c1.7,1.4,3.4,2.8,5,4.3c1.6,1.5,3.2,3,4.8,4.6c3,3.2,6,6.5,8.7,10
			c5.4,7,10.1,14.6,14.1,22.3c2,3.9,3.9,7.8,5.7,11.7c1.7,3.9,3.4,7.9,5.1,11.8c1.7,3.9,3.2,7.9,4.7,11.8l4.7,11.7l9.1,23.5
			c2.9,7.9,6,15.7,8.8,23.6l0,0.1c1.9,5.2-0.8,10.9-5.9,12.8c-3.9,1.4-8.2,0.2-10.8-2.7c-2.2-2.5-5.4-5.4-8.5-9.2
			c-0.8-0.9-1.5-2-2.3-3l-1-1.4l-0.8-1.3c-1.1-1.7-2.2-3.5-3.4-5.3c-2.2-3.6-4.4-7.4-6.4-11.5c-0.5-1-1-2.1-1.4-3.1l-0.7-1.6
			l-0.6-1.4l-2.2-5.4c-1.5-3.6-3-7.2-4.7-10.7c-1.6-3.6-3.3-7.1-5.1-10.6c-3.6-7-7.3-13.9-11.3-20.7c-7.9-13.6-16.7-26.9-25.9-40
			c-1.2-1.6-2.3-3.3-3.5-4.9l-3.5-4.9c-2.4-3.3-4.7-6.5-7.1-9.9C216.1,751.7,212,744.8,207.7,737.9z"/>
	</g>
</g>
<g>
	<path d="M446.9,502.3c-28.4,27.3-61.5,48.2-94.8,68.8c-20.1,12.4-40.3,24.8-59.6,38.4c-20.5,14.4-37.2,32.9-51.3,53.7
		c-5.4,8-11.1,16-16.7,23.9c-17.8,25.3-41.6,36.5-72.4,30.3c-21.4-4.3-43-7.9-63.8-14.3c-52.5-16.3-76.1-61.6-58.6-113.7
		c6.5-19.3,16.6-37.7,27.5-55.1c21.5-34.5,45-67.7,66.9-101.9c23.8-37,44.3-75.9,60.8-116.8c0.9-2.2,1.9-4.4,3.1-6.5
		c0.4-0.7,1.4-1,4.7-3.1c-0.8,5.6-0.5,9.7-2,12.9c-15.4,32.2-29.2,65.4-47,96.2c-21.7,37.5-47.5,72.6-70.5,109.3
		c-12.5,20-23.8,40.8-34,62c-7.1,14.9-8.4,31.4-5.5,48.1c4.4,25.6,18,44.4,41.7,54.6c29.1,12.6,60,19,91.7,21.2
		c16,1.1,29.9-4.7,40.7-16.7c6.3-7,12.5-14.2,17.4-22.1c26.8-43.7,64.7-74.8,109-99.4c37.7-21,74.9-43.3,105.3-74.3
		c34.5-35.2,53.5-76.9,44.6-127.8c-0.6-3.7-0.1-7.5-0.1-11.3c0.8-0.3,1.6-0.6,2.3-0.9c1.6,3.1,3.8,6.1,4.7,9.4
		c6.5,24.5,4.4,48.6-4.5,72.3c-8.2,21.9-20.4,41.2-35.5,58.9C449.7,499.6,448.3,500.9,446.9,502.3L446.9,502.3z"/>
	<path d="M446.9,502.3c-13.4,13.6-28.2,25.7-43.6,37.1C388,550.7,372,561.1,356,571.5c-16,10.3-32,20.6-47.7,31.3
		c-3.9,2.7-7.8,5.4-11.6,8.2c-1.9,1.4-3.8,2.8-5.7,4.2c-1.8,1.4-3.7,2.9-5.4,4.4c-3.6,3-7,6.1-10.4,9.4c-3.3,3.3-6.6,6.6-9.6,10.1
		c-6.2,7-11.9,14.4-17.2,22.1l-16,23.7c-1.4,2-2.6,3.9-4.1,5.9c-1.5,2-2.9,4.1-4.5,6c-3.1,4-6.7,7.6-10.5,11
		c-3.9,3.3-8.1,6.4-12.6,8.9c-1.1,0.6-2.3,1.2-3.5,1.8l-1.8,0.9l-1.8,0.7c-1.2,0.5-2.4,1-3.7,1.4l-3.7,1.1c-5,1.3-10.2,2.3-15.4,2.4
		l-1.9,0.1c-0.6,0-1.3,0-1.9,0l-3.9-0.1c-1.3-0.1-2.6-0.2-3.8-0.3c-1.3-0.1-2.6-0.2-3.8-0.4l-3.8-0.6c-0.6-0.1-1.2-0.2-1.8-0.3
		l-1.7-0.3l-7-1.3l-14.1-2.6c-9.4-1.8-18.9-3.7-28.3-6c-4.7-1.2-9.4-2.4-14.2-4c-4.8-1.5-9.5-3.3-14.2-5.4
		c-9.2-4.2-18-9.7-25.7-16.7c-7.7-6.9-14.3-15.3-19.1-24.6c-4.8-9.3-7.8-19.6-9-29.9c-0.6-5.2-0.7-10.4-0.5-15.6
		c0.3-5.2,0.9-10.3,1.9-15.3c1-5,2.3-10,3.8-14.8c1.6-4.8,3.3-9.4,5.2-14c3.8-9.2,8.2-18,13-26.5c4.7-8.5,9.8-16.8,14.9-24.9
		c5.1-8.1,10.3-16.2,15.5-24.2c10.4-16,21-31.9,31.5-47.7c5.2-7.9,10.4-15.9,15.4-23.9c5-7.9,9.9-16,14.6-24.1
		c9.4-16.3,18.3-32.8,26.4-49.8c4.1-8.5,7.9-17,11.6-25.6l2.7-6.5l2.7-6.5l0.7-1.7l0.8-1.9c0.6-1.3,1.2-2.5,1.8-3.8l0.5-0.9l0.2-0.4
		c-0.1,0.1,0.2-0.3,0.6-1c0.3-0.5,0.8-1,1.1-1.4c1.5-1.5,2.1-1.8,2.6-2.1l1-0.6c1-0.6,1.8-1.1,2.7-1.6l0,0
		c4.5-2.9,10.6-1.7,13.6,2.9c1.3,2.1,1.8,4.5,1.5,6.8c-0.3,2.2-0.4,4.5-0.7,7.8c-0.2,1.7-0.5,3.8-1.4,6.3c-0.1,0.3-0.2,0.6-0.4,0.9
		l-0.4,0.8l-0.4,0.9l-0.9,1.8l-6.8,14.7c-4.5,9.8-9,19.7-13.6,29.6c-4.6,9.9-9.4,19.8-14.5,29.6c-2.5,4.9-5.2,9.8-7.8,14.6
		c-2.7,4.9-5.5,9.6-8.3,14.3c-22.7,37.7-48.6,72.8-70.8,109.3c-5.5,9.1-10.8,18.4-15.8,27.8c-2.5,4.7-5,9.4-7.4,14.2l-3.5,7.2
		l-1.7,3.6c-0.5,1.1-1,2.1-1.4,3.2c-3.5,8.6-4.9,18.2-4.5,27.8c0.2,4.8,0.8,9.8,1.9,14.5c1,4.7,2.4,9.3,4.3,13.7
		c3.7,8.7,9.3,16.2,16.6,22c3.7,2.9,7.7,5.4,12,7.5c2.1,1,4.6,2,7,3.1c2.4,1,4.8,2,7.3,2.9c19.5,7.3,40.2,11.9,61.1,14.6
		c5.2,0.7,10.5,1.1,15.7,1.6c2.3,0.1,4.5,0.2,6.8,0c2.2-0.2,4.4-0.5,6.6-1.1c4.3-1.1,8.3-2.9,12-5.4c0.9-0.6,1.8-1.3,2.7-2
		c0.9-0.7,1.8-1.4,2.6-2.2c0.9-0.8,1.7-1.6,2.4-2.4c0.4-0.4,0.9-0.9,1.3-1.4l1.3-1.5c3.5-3.9,6.9-7.9,9.9-11.9
		c1.5-2,2.9-4.1,4.2-6.1l4.6-7c6.3-9.3,13.1-18.2,20.5-26.6c14.8-16.9,31.7-31.6,49.9-44.4c9.1-6.4,18.4-12.4,28-17.9
		c9.7-5.5,19.1-10.5,28.5-15.9c18.8-10.6,37.1-21.7,54.2-34.5c17.1-12.7,33.1-26.9,46.5-43.3c6.7-8.2,12.6-16.9,17.5-26.2
		c4.9-9.3,8.8-19.1,11.3-29.2c2.5-10.2,3.7-20.7,3.6-31.2c0.1-2.6-0.2-5.3-0.3-7.9c-0.1-1.3-0.1-2.6-0.3-4l-0.5-3.9l-0.5-3.9l-0.1-1
		c-0.1-0.4-0.1-0.8-0.1-1.2c-0.1-0.8-0.1-1.6-0.1-2.3c0-3,0.3-5.7,0.3-8.2l0-0.1c0-1.4,0.9-2.6,2.1-3l2.3-0.8l0.1,0
		c1.5-0.6,3.2,0.2,3.9,1.6c1.2,2.6,3.2,5.3,4.4,9c0.1,0.4,0.3,1,0.4,1.4l0.3,1.2l0.5,2.4c0.4,1.6,0.6,3.2,0.9,4.8
		c1.1,6.5,1.6,13,1.6,19.5c-0.1,13.1-2.5,26-6.6,38.3c-4.1,12.3-9.8,23.9-16.5,34.9c-6.7,10.9-14.5,21.2-23,30.7l0,0l0,0
		L446.9,502.3L446.9,502.3L446.9,502.3z M446.9,502.3L446.9,502.3L446.9,502.3l4.1-4l0,0c8-9.9,15.3-20.4,21.5-31.5
		c6.1-11.1,11.2-22.9,14.8-34.9c3.6-12.1,5.4-24.6,5-37.1c-0.2-6.2-0.9-12.4-2.2-18.5c-0.4-1.5-0.6-3-1-4.5l-0.6-2.3l-0.3-1.1
		c-0.1-0.4-0.2-0.6-0.3-0.9c-0.9-2.4-2.7-4.9-4.4-8l4.1,1.6l-2.3,0.9l2.1-3.1c0,2.9-0.2,5.6-0.1,8c0,0.6,0.1,1.2,0.1,1.7
		c0,0.3,0.1,0.6,0.1,0.8l0.2,1l0.7,4.1l0.7,4.1c0.2,1.4,0.3,2.8,0.4,4.2c0.2,2.8,0.6,5.5,0.6,8.3c0.5,11.1-0.4,22.4-2.8,33.4
		c-2.4,11-6.2,21.6-11.1,31.7c-4.9,10.1-11,19.5-17.8,28.3c-6.8,8.8-14.3,17.1-22.3,24.8c-8,7.7-16.4,14.9-25.1,21.7
		c-17.4,13.6-36,25.5-54.7,36.6c-9.4,5.6-19,10.9-28.1,16.4c-9.1,5.5-18,11.4-26.5,17.7c-17,12.6-32.9,26.7-46.5,42.8
		c-6.8,8-13.1,16.4-18.8,25.2l-4.2,6.7c-1.6,2.5-3.2,5-4.9,7.3c-3.4,4.7-7.1,9-10.7,13.2l-1.4,1.6c-0.5,0.5-0.9,1-1.4,1.6
		c-1.1,1.1-2.1,2.3-3.3,3.3c-1.1,1.1-2.3,2.1-3.5,3.1c-1.3,1-2.5,2-3.8,2.9c-5.2,3.6-11.2,6.4-17.4,8.1c-3.1,0.9-6.3,1.4-9.4,1.7
		c-3.2,0.3-6.3,0.3-9.5,0.1c-5.6-0.4-11.1-0.8-16.7-1.4c-22.1-2.5-44.2-7.2-65.4-14.9c-2.7-0.9-5.3-2-7.9-3c-2.6-1.1-5.2-2.1-8-3.4
		c-5.5-2.6-10.8-5.7-15.7-9.5c-4.9-3.8-9.3-8.2-13.1-13.2c-3.8-4.9-6.9-10.3-9.4-16c-2.5-5.6-4.3-11.4-5.6-17.3
		c-1.3-5.8-2-11.7-2.4-17.7c-0.6-12,1.1-24.4,5.7-35.9c0.5-1.4,1.2-2.8,1.8-4.3l1.8-3.8l3.6-7.4c2.4-4.9,5-9.8,7.5-14.7
		c5.1-9.7,10.5-19.4,16.2-28.8c11.4-18.9,23.6-37,35.6-55c12-18,23.9-36,35-54.3c2.8-4.6,5.5-9.2,8.1-13.8c2.6-4.6,5.1-9.3,7.6-14
		c4.9-9.5,9.6-19.1,14.2-28.9c4.6-9.8,9.1-19.6,13.6-29.5c2.3-4.9,4.6-9.9,6.9-14.8l0.9-1.9l0.4-0.9c0.1-0.1,0-0.1,0-0.1l0,0
		c0,0,0,0,0,0c0,0,0.2-0.7,0.3-1.7c0.2-2.1,0.4-5.2,0.9-8.4l15.1,9.6c-1.1,0.7-2.4,1.5-3.4,2.1l-0.5,0.3c0,0,0.1,0,1.2-1
		c0.2-0.2,0.6-0.6,0.8-1c0.4-0.5,0.5-0.8,0.4-0.6l-0.2,0.3l-0.3,0.6c-0.4,0.8-0.9,1.7-1.3,2.6l-0.6,1.4l-0.7,1.6l-2.8,6.7l-2.9,6.7
		c-3.9,8.9-7.9,17.6-12.1,26.3c-8.4,17.4-17.6,34.4-27.5,51c-4.9,8.3-10,16.5-15.2,24.6c-5.2,8.1-10.5,16-15.8,24L85.3,507
		c-5.3,7.9-10.5,15.8-15.6,23.7c-5.1,8-10.1,15.9-14.7,23.9c-4.6,8.1-8.8,16.3-12.5,24.6c-1.8,4.2-3.5,8.4-5,12.7
		c-1.4,4.2-2.6,8.5-3.5,12.8c-0.9,4.3-1.5,8.6-1.8,13c-0.2,4.3-0.2,8.7,0.2,13c0.9,8.6,3.2,17,7,24.6c3.8,7.7,9,14.7,15.4,20.6
		c6.3,6,13.8,10.8,21.7,14.7c4,1.9,8.1,3.6,12.4,5c4.3,1.5,8.8,2.8,13.3,4c9,2.4,18.2,4.5,27.4,6.5l14,2.9l7,1.5l1.8,0.4
		c0.6,0.1,1.2,0.2,1.7,0.3l3.3,0.6c1.1,0.2,2.2,0.3,3.3,0.5l3.3,0.4l3.3,0.1c0.5,0,1.1,0.1,1.6,0.1l1.6-0.1c4.4,0,8.6-0.7,12.8-1.7
		l3.1-0.9c1-0.3,2-0.7,3-1.1l1.5-0.6l1.5-0.7c1-0.5,2-0.9,2.9-1.4c3.8-2,7.4-4.5,10.9-7.3c3.3-2.9,6.6-5.9,9.4-9.4
		c1.5-1.7,2.8-3.5,4.2-5.3c1.4-1.8,2.8-3.8,4.1-5.7l16.7-23.2c5.7-7.8,11.9-15.4,18.6-22.4c3.3-3.6,6.8-7,10.4-10.3
		c3.6-3.3,7.3-6.5,11.1-9.5c1.9-1.5,3.9-2.9,5.8-4.4c2-1.4,4-2.8,6-4.1c4-2.7,8-5.3,12-7.9c16.1-10.4,32.6-20,48.9-29.7
		c16.4-9.7,32.6-19.6,48.4-30.2C417.6,526.6,432.8,515.1,446.9,502.3z"/>
</g>
<g>
	<path d="M446.9,502.3c1.4-1.3,2.8-2.6,4.2-3.9c24.3-13.2,50.6-19.6,77.8-22.9c3.9-0.5,7.9-1.3,11.7-0.8c2.4,0.3,4.6,2.7,6.9,4.1
		c-1.9,1.6-3.5,4.1-5.7,4.8c-10.3,3.4-20.8,6.3-31.3,9.4c-1.5,0.4-2.8,1-4.3,1.6c-49.4,18.3-68.3,48.9-56.2,109.9
		c4.5,22.9,16.4,41.7,32.5,58.8c30.4,32.4,68.1,54.3,105.8,76.3c1.8,1.1,3.8,1.9,5.7,2.7c20.2,8.4,33.1,0.5,35.4-21.3
		c3-28.5-4.3-55.3-11.9-82.2c-4.5-16-11.8-31.8-13.2-48c-1.8-21.8,1.2-44,1.5-66.1c0.2-11.8-1.1-23.5-1.3-35.3c-0.1-3,1.2-6,1.9-9
		c2.1,2.5,5.9,5,5.9,7.6c0.4,19,1.2,38.1-0.3,57c-1.9,23.2-1.5,45.7,6.1,68.2c10.8,32.2,21.8,64.5,20.3,99.2
		c-0.3,6.9-1.3,14-3.4,20.5c-5,16-18.6,23.5-34.9,19.7c-4.7-1.1-9.5-2.5-13.7-4.8C545.3,724.3,504,700.6,472,664
		c-29.8-34-39.3-73-30.1-116.7c5.3-25.2,22.4-40.8,44.3-52.2c2.9-1.5,5.8-3,8.8-4.6c-0.4-0.9-0.8-1.8-1.2-2.7
		c-12.8,5.6-25.7,11.2-38.4,17C451.4,506.5,447.9,509.1,446.9,502.3L446.9,502.3z"/>
	<path d="M446.9,502.3c1.3-1.3,2.7-2.6,4.1-4l0,0l0,0c7.3-4.3,15-8,22.9-11.2c7.9-3.2,16-5.8,24.3-8c8.3-2.1,16.6-3.9,25-5.3l6.3-1
		c2-0.3,4.2-0.7,6.4-0.9c1.1-0.1,2.3-0.2,3.5-0.1l0.9,0l0.5,0l0.2,0l0.3,0c0.9,0.1,1.6,0.4,2.3,0.7c1.3,0.6,2.3,1.3,3.2,2
		c0.9,0.6,1.7,1.2,2.4,1.6c1.4,0.8,1.9,2.7,1.1,4.1c-0.2,0.3-0.3,0.5-0.6,0.7l-0.1,0.1c-1,0.9-2.1,2.4-3.9,3.9
		c-0.5,0.4-1,0.8-1.6,1.1c-0.3,0.2-0.6,0.3-1,0.5l-0.4,0.2l-0.3,0.1l-2.5,0.9c-3.4,1.2-6.8,2.3-10.2,3.4l-10.2,3.2l-5.1,1.6
		l-2.5,0.8c-0.7,0.2-1.4,0.5-2.2,0.8l-4.9,2c-1.6,0.6-3.2,1.4-4.8,2.1c-1.6,0.7-3.1,1.5-4.7,2.2c-1.5,0.8-3.1,1.6-4.6,2.4
		c-1.5,0.9-3,1.7-4.4,2.6l-2.2,1.4l-2.1,1.4c-1.4,0.9-2.7,2-4.1,3l-1.9,1.6l-1,0.8l-0.9,0.8c-2.5,2.2-4.8,4.6-6.9,7.1
		c-2.1,2.5-4,5.2-5.6,8c-1.6,2.8-3,5.8-4.2,8.8c-1.1,3.1-2.1,6.2-2.8,9.4c-1.4,6.4-1.9,13.1-1.9,19.9c0.1,6.8,0.7,13.6,1.8,20.4
		c0.5,3.4,1.2,6.8,1.9,10.2c0.3,1.7,0.8,3.3,1.1,4.9c0.4,1.6,0.9,3.2,1.4,4.8c2,6.3,4.6,12.5,7.8,18.3c6.5,11.7,15.2,22.2,25,31.8
		c9.7,9.8,20.4,18.6,31.6,26.9c11.2,8.2,23,15.8,35,23.2c6,3.6,12.1,7.2,18.2,10.8l9.2,5.3l4.6,2.7l2.3,1.3l0.5,0.3l0.4,0.2l0.9,0.4
		c0.6,0.3,1.3,0.6,2,0.9l1.1,0.5l1.1,0.4c1.4,0.5,2.8,1,4.1,1.3c2.7,0.7,5.2,0.9,7.3,0.7c2.1-0.3,3.5-0.9,4.8-2
		c1.3-1.1,2.5-2.9,3.4-5.2c0.5-1.1,0.9-2.4,1.2-3.8c0.3-1.3,0.6-2.8,0.7-4.2l0.1-1.1l0.1-1.2l0.2-2.5c0.2-1.6,0.1-3.3,0.2-4.9
		c0.2-6.6-0.2-13.3-1-19.9c-1.6-13.4-4.9-26.7-8.7-40.3l-2.9-10.2c-0.9-3.2-2-6.5-3.1-9.8c-2.2-6.6-4.7-13.5-6.8-20.8
		c-1-3.7-2-7.4-2.6-11.3c-0.3-2-0.6-3.9-0.8-6l-0.2-1.5l-0.1-1.4l-0.2-2.8c-0.4-7.5-0.4-15-0.1-22.3c0.5-14.6,1.8-28.8,1.9-42.3
		c0-6.7-0.4-13.6-0.8-20.8c-0.2-3.6-0.4-7.2-0.5-10.9l0-1.4l0-0.6l0-0.7c0-0.4,0-0.8,0.1-1.2c0.1-1.6,0.4-2.9,0.7-4.1
		c0.6-2.3,1.1-3.9,1.4-5l0-0.2c1.1-5.3,6.4-8.7,11.7-7.5c2.4,0.5,4.3,1.8,5.7,3.6c0.1,0.1,0.5,0.5,1,1.1c0.5,0.5,1.2,1.2,2.1,2
		c0.8,0.9,1.8,1.9,3,3.8l0.4,0.8l0.2,0.4l0.2,0.5c0.1,0.3,0.3,0.7,0.4,1c0.1,0.4,0.3,0.8,0.4,1.2c0.2,0.8,0.4,1.8,0.4,2.8l0,0.8
		l0.2,10.4c0.2,7,0.3,14,0.3,21.1c0,7.1-0.2,14.2-0.6,21.4l-0.8,10.4c-0.2,3.4-0.4,6.7-0.5,10c-0.4,13.3,0.5,26.4,3.6,38.9
		c0.7,3.1,1.6,6.2,2.6,9.3l3.3,9.9c2.2,6.7,4.3,13.3,6.3,20.2c4,13.6,7.4,27.6,9.3,42c1,7.2,1.5,14.5,1.5,21.9
		c0.1,1.8,0,3.7-0.1,5.5c-0.1,1.8-0.1,3.7-0.2,5.6c-0.3,3.8-0.7,7.6-1.5,11.4c-0.4,1.9-0.8,3.8-1.3,5.7c-0.5,1.9-1.1,3.7-1.9,5.8
		c-1.5,4-3.6,7.9-6.5,11.5c-2.9,3.5-6.5,6.6-10.6,8.7c-4.1,2.2-8.6,3.4-13.1,3.9c-4.5,0.5-8.8,0-12.9-0.9c-0.5-0.1-1.1-0.2-1.5-0.3
		l-1.4-0.3c-0.9-0.2-1.8-0.5-2.8-0.8c-1.9-0.5-3.8-1.2-5.7-1.9c-1.9-0.8-3.9-1.7-5.8-2.8l-4.5-2.6l-9-5.3
		c-24.1-14.1-48.1-29.1-69.9-47.3c-10.9-9.1-21.2-19.1-30.5-29.8c-9.5-10.8-17.5-23.1-23.6-36.2c-0.7-1.7-1.4-3.4-2.1-5l-1-2.5
		c-0.3-0.8-0.6-1.7-0.9-2.6l-1.7-5.2L438,613c-0.2-0.9-0.5-1.7-0.7-2.6l-0.5-2.7c-0.3-1.8-0.8-3.5-1-5.3c-0.5-3.6-1.1-7.1-1.3-10.8
		c-0.7-7.2-0.5-14.4,0-21.5c0.4-3.6,0.6-7.1,1.2-10.6c0.3-1.8,0.5-3.5,0.8-5.3l1.1-5.2l0.5-2.6l0.7-2.7c0.4-1.8,1-3.5,1.6-5.2
		l0.4-1.3c0.2-0.4,0.3-0.8,0.5-1.3l1.1-2.5c0.7-1.7,1.6-3.3,2.4-4.9c3.5-6.4,8.1-12.2,13.3-17.1c5.2-5,11.1-9.1,17.1-12.8
		c3-1.8,6.2-3.5,9.3-5l9.4-4.6l-0.8,2.3l-1.1-2.7l2.2,0.9l-24.9,10.1l-12.4,5c-1,0.4-2.1,0.8-3.1,1.3c-1,0.4-2.1,0.9-3.2,1.1
		c-0.6,0.1-1.2,0.1-1.8-0.2c-0.5-0.3-1-0.7-1.2-1.2C447.2,504.5,447.1,503.4,446.9,502.3L446.9,502.3L446.9,502.3z M446.9,502.3
		L446.9,502.3L446.9,502.3c0.2,1.1,0.5,2.2,1.1,3.1c0.3,0.5,0.7,0.8,1.2,1c0.5,0.2,1,0.1,1.5,0c1-0.3,2-0.8,3-1.3c1-0.5,2-1,3-1.5
		l12.1-5.8l24.2-11.6c0.8-0.4,1.8,0,2.2,0.8l0,0l0,0.1l1.3,2.7c0.4,0.8,0.1,1.8-0.7,2.2l-0.1,0l-9.1,5.1c-3,1.7-5.9,3.4-8.7,5.4
		c-5.6,3.8-11,8-15.6,12.9c-4.6,4.9-8.4,10.3-11.4,16.2c-0.7,1.5-1.4,3-2,4.5l-0.8,2.3c-0.1,0.4-0.3,0.8-0.4,1.2l-0.3,1.2
		c-0.5,1.6-0.9,3.1-1.3,4.8l-0.5,2.4l-0.4,2.5l-0.8,5c-0.2,1.7-0.4,3.4-0.6,5c-0.4,3.4-0.5,6.7-0.7,10.1c-0.1,6.7,0,13.5,0.9,20.1
		c0.3,3.3,1,6.6,1.6,9.9c0.3,1.6,0.8,3.2,1.2,4.9l0.6,2.4c0.2,0.8,0.5,1.6,0.7,2.4l1.5,4.8l1.8,4.7c0.3,0.8,0.6,1.6,0.9,2.3l1,2.3
		c0.7,1.5,1.3,3,2.1,4.5c1.6,2.9,3,5.9,4.8,8.7c0.9,1.4,1.7,2.9,2.6,4.2l2.8,4.1c0.5,0.7,0.9,1.4,1.4,2l1.5,2l3.1,4l3.3,3.8
		c1.1,1.3,2.2,2.5,3.3,3.8c9.2,9.9,19.2,19,29.9,27.4c21.3,16.8,45,30.7,69.1,44.2l9.1,5l4.6,2.5c1.1,0.6,2.3,1.2,3.7,1.6
		c1.3,0.5,2.7,0.9,4.2,1.3c0.7,0.2,1.5,0.4,2.3,0.6l1.2,0.3c0.4,0.1,0.7,0.1,1.1,0.2c2.7,0.5,5.3,0.7,7.8,0.4c4.9-0.6,9-2.8,12-6.6
		c1.5-1.9,2.7-4.2,3.6-6.7c0.2-0.7,0.5-1.2,0.7-2c0.2-0.7,0.4-1.4,0.6-2.2c0.4-1.5,0.7-3,0.9-4.5c0.5-3,0.9-6.1,1-9.3
		c0.1-1.5,0.1-3.2,0.1-4.8c0-1.6,0.1-3.3,0-4.9c-0.1-6.5-0.7-13.1-1.7-19.6c-1.9-13.1-5.2-26.1-9.2-39.1c-2-6.5-4.2-13-6.4-19.5
		l-3.3-9.9c-1.2-3.6-2.3-7.1-3.1-10.8c-3.6-14.5-4.7-29.4-4.4-43.9c0.1-3.6,0.2-7.2,0.4-10.8l0.7-10.4c0.4-6.7,0.5-13.4,0.5-20.2
		c0-6.8-0.2-13.7-0.3-20.6l-0.3-10.4l0-0.3l0-0.2c0,0,0-0.2,0,0c0,0.5,0.1,1.2,0.2,1.5c0,0.2,0.1,0.4,0.2,0.6c0,0.1,0.1,0.3,0.2,0.4
		l0.1,0.2l0.1,0.1c0,0.1,0.1,0.1,0.1,0.2c0.3,0.4,0.1,0.1-0.3-0.3c-0.4-0.4-1-0.9-1.7-1.6c-0.7-0.7-1.6-1.5-2.6-2.7l17.4-4.2
		c-0.6,2.4-1.2,4.2-1.4,5.3c-0.1,0.6-0.2,1-0.2,1.2c0,0.1,0,0.1,0,0.1l0,0c0,0,0,0,0,0.1l0,1.3c0.1,3.4,0.3,6.9,0.5,10.4
		c0.4,7,0.9,14.4,0.8,21.9c-0.1,14.9-1.5,29.1-2,43c-0.3,6.9-0.3,13.7,0.1,20.4l0.2,2.5l0.1,1.2l0.1,1.1c0.1,1.5,0.4,3.1,0.6,4.6
		c0.5,3.1,1.3,6.3,2.2,9.5c1.8,6.4,4.1,13,6.3,19.9c1.1,3.4,2.3,7,3.3,10.6l2.9,10.4c3.7,13.9,7.3,28.3,8.9,43.2
		c0.8,7.5,1.2,15.1,0.9,22.7c-0.1,1.9-0.1,3.8-0.3,5.7l-0.3,2.9l-0.1,1.4l-0.2,1.5c-0.3,2.1-0.7,4.1-1.2,6.2
		c-0.5,2.1-1.2,4.2-2.1,6.4c-1.8,4.2-4.5,8.7-8.7,12.2c-2.1,1.7-4.5,3.2-7,4.2c-2.5,1-5.1,1.6-7.6,1.9c-5,0.5-9.7-0.2-13.9-1.3
		c-2.1-0.6-4.1-1.2-6-2l-1.4-0.6l-1.3-0.6c-0.9-0.4-1.9-0.8-2.8-1.3c-0.5-0.2-1-0.5-1.5-0.8l-0.8-0.4l-0.7-0.4l-2.3-1.4l-4.6-2.7
		l-9.2-5.5c-6.1-3.7-12.2-7.5-18.3-11.3c-12.2-7.7-24.2-15.8-35.7-24.7c-11.5-8.9-22.6-18.5-32.8-29.2
		c-10.2-10.5-19.6-22.4-26.5-35.9c-3.5-6.7-6.3-13.8-8.4-21.1c-0.5-1.8-1-3.7-1.4-5.5c-0.4-1.8-0.8-3.7-1.1-5.5
		c-0.6-3.6-1.2-7.2-1.6-10.9c-0.9-7.3-1.4-14.7-1.2-22.2c0.2-7.5,1-15.1,2.9-22.5c0.9-3.7,2.2-7.4,3.7-10.9c1.5-3.6,3.3-7,5.4-10.3
		c2.1-3.2,4.4-6.3,7-9.2c2.6-2.8,5.3-5.5,8.3-7.9c11.7-9.6,25.5-15.7,39.1-20.4c0.9-0.3,1.8-0.7,2.8-0.9l2.6-0.7l5.2-1.4l10.3-2.8
		c3.4-0.9,6.8-1.9,10.2-2.9l2.5-0.8l0.3-0.1l0.2,0l0.1,0c0.1,0,0.1,0,0.2-0.1c0.2-0.1,0.4-0.2,0.6-0.4c1-0.7,2.1-2.1,3.8-3.5
		l0.4,4.9c-1.1-0.7-1.9-1.4-2.7-2.1c-0.8-0.6-1.5-1.2-2.1-1.5c-0.3-0.2-0.5-0.2-0.7-0.3l-0.1,0l-0.2,0l-0.3,0l-0.7-0.1
		c-0.9-0.1-1.9-0.1-2.8,0c-2,0.1-4,0.3-6.2,0.6l-6.3,0.6c-8.3,0.9-16.7,2.2-24.9,3.9c-8.2,1.7-16.4,3.8-24.4,6.5
		c-8,2.7-15.8,5.9-23.4,9.6l0,0C449.9,499.7,448.4,500.9,446.9,502.3z"/>
</g>
<g>
	<path d="M651.5,685.1c2.4,1.6,5.5,2.7,7,4.9c10.4,15.4,24.8,20.9,43.1,19.7c32.6-2.2,65.4-3.4,98-5.7c9.8-0.7,19.9-2.9,29.2-6
		c34.5-11.6,53.2-43.2,47.6-79.3c-0.4-2.4-0.9-4.8-1.1-7.2c-0.6-9.2-4.7-14-14.5-15.1c-10.8-1.2-21.4-4-32-6.4
		c-35-8.1-61.3-28.1-79.5-58.9c-3.7-6.3-7.5-12.5-11-18.8c-27.3-48.7-72-69.1-124.7-75.5c-22.1-2.7-44.2-0.9-65.8,5
		c-18.7,5-34.6,14.4-47.2,29.2c-1.9,2.3-4.5,4-6.7,6c-1-0.8-2-1.5-3-2.3c2.6-3.9,4.7-8.2,7.8-11.7c15.1-17,34.3-26.6,56.4-30.8
		c51.3-9.8,99.5-2,144,26c16.2,10.2,29,23.8,39.2,39.9c5.2,8.2,10.3,16.5,15,25c20.1,36.3,51.1,56.5,91.8,62.8
		c6.3,1,12.5,2.7,18.8,3.2c10.4,0.9,15.2,6.5,17.7,16.3c14.3,54.5-17,100.4-73.9,106.1c-26.2,2.6-52.7,2.5-79,3.8
		c-9.7,0.5-19.3,1.9-29,2.7c-19.4,1.5-35.1-5.3-46.3-21.5c-1.9-2.7-2.7-6.1-4.1-9.2C650.1,686.4,650.8,685.8,651.5,685.1
		L651.5,685.1z"/>
	<path d="M651.5,685.1c1.7,1.1,3.5,1.8,5.2,2.9c0.8,0.5,1.6,1.2,2.2,2.1l1.8,2.3c2.5,3,5.3,5.8,8.4,8.1c3.1,2.3,6.6,4.1,10.2,5.3
		c3.6,1.3,7.4,2,11.3,2.3c3.8,0.3,7.7,0.2,11.6-0.2l11.8-1.1l23.6-1.9c15.8-1.3,31.5-2.4,47.2-3.7l11.8-1l2.9-0.3
		c0.9-0.1,1.9-0.2,2.8-0.3c1.9-0.2,3.8-0.5,5.6-0.9c3.7-0.7,7.5-1.5,11.1-2.6c1.8-0.5,3.7-1.1,5.5-1.7l2.7-0.9l2.6-1.1
		c6.9-2.8,13.3-6.5,18.9-11.2c5.6-4.7,10.4-10.3,13.9-16.6c3.6-6.3,6-13.2,7.3-20.3c1.3-7.1,1.3-14.5,0.4-21.7l-0.3-2.7
		c-0.1-0.9-0.3-1.7-0.5-2.7c-0.2-1-0.4-2.1-0.6-3.2c-0.1-0.6-0.2-1.2-0.2-1.8l-0.1-1.3c-0.2-1.5-0.5-2.8-1-3.8
		c-0.5-1-0.9-1.6-1.6-2.1c-0.7-0.5-1.6-0.9-2.9-1.3c-0.3-0.1-0.6-0.2-1-0.2c-0.4-0.1-0.7-0.1-1.1-0.2l-1.2-0.1l-1.6-0.2
		c-4.2-0.5-8.2-1.1-12.2-1.9c-4-0.8-7.9-1.6-11.8-2.5l-5.8-1.3l-1.4-0.3l-1.5-0.4l-3-0.7c-8.1-2-16-4.8-23.6-8.3
		c-15.3-7-29.2-17.4-40.4-29.9c-5.6-6.3-10.6-13-15.1-20.1l-1.7-2.6l-1.5-2.6l-3.1-5.1l-6.1-10.3c-7.4-13.1-16.7-24.7-27.8-34.5
		c-1.3-1.3-2.8-2.4-4.2-3.5c-1.4-1.1-2.8-2.3-4.3-3.4l-4.5-3.1c-0.8-0.5-1.5-1.1-2.3-1.6l-2.4-1.4l-4.7-2.9L676,464l-2.5-1.3
		c-0.8-0.4-1.7-0.8-2.5-1.1l-5.1-2.3c-13.8-5.6-28.5-9.3-43.5-11.7c-1.9-0.3-3.8-0.5-5.7-0.8c-1.9-0.2-3.8-0.6-5.6-0.7
		c-3.7-0.4-7.4-0.7-11.1-0.8c-3.7-0.2-7.4-0.1-11.2,0c-3.7,0.1-7.4,0.4-11.1,0.8c-7.4,0.8-14.8,2-22.1,3.8c-1.8,0.4-3.6,0.9-5.4,1.4
		c-1.7,0.5-3.5,1-5.2,1.6c-3.4,1.1-6.7,2.4-9.9,3.9c-6.4,3-12.3,6.8-17.7,11.3c-2.7,2.3-5.2,4.7-7.6,7.3l-1.8,2c-1,1.2-2.1,2.2-3,3
		c-1.9,1.7-3.5,2.9-4.6,3.8c-3.6,3.2-9,3.3-12.6,0.4l-0.1-0.1l-3-2.3l0,0c-4.1-3.2-5-9-2.1-13.3c1.9-2.9,3.9-6.8,7.3-11.1
		c0.4-0.5,0.9-1.1,1.3-1.6l1.2-1.3c0.8-0.8,1.5-1.7,2.4-2.5c1.6-1.6,3.3-3.2,5-4.8c6.9-6.1,14.6-11.3,22.8-15.4
		c8.2-4.1,16.9-7,25.6-9c1.1-0.3,2.2-0.5,3.3-0.7c1.1-0.2,2.2-0.5,3.2-0.6l6.4-1.1c2.1-0.4,4.3-0.6,6.4-0.9c2.2-0.3,4.3-0.6,6.5-0.8
		c17.3-1.7,34.8-1.5,52.1,1.2c8.7,1.2,17.2,3.3,25.6,5.6l6.3,1.9l1.6,0.5l1.5,0.6l3.1,1.1c4.1,1.4,8.1,3.2,12.1,4.9
		c1,0.4,2,0.9,3,1.4l2.9,1.4l2.9,1.4l1.5,0.7l1.4,0.8c3.8,2.1,7.7,4.1,11.3,6.4c1.9,1.1,3.7,2.2,5.6,3.4c1.9,1.2,3.7,2.5,5.6,3.8
		c3.6,2.6,7.1,5.5,10.4,8.5c6.6,6,12.6,12.6,17.9,19.7c2.6,3.5,5.1,7.2,7.4,10.9c2.2,3.6,4.4,7.2,6.6,10.8c2.2,3.6,4.3,7.3,6.3,11
		l1.5,2.8c0.5,1,1,1.7,1.5,2.6c1,1.7,1.9,3.4,3,5c4.1,6.6,8.8,12.8,14.1,18.4c5.3,5.6,11.1,10.7,17.5,15c6.3,4.4,13.2,8,20.4,10.9
		c7.2,2.9,14.7,5.2,22.4,6.9l5.8,1.1l3.2,0.6l3.2,0.6c4.2,0.9,8,1.8,11.6,2.2l1.4,0.2l1.9,0.2c1.3,0.2,2.6,0.5,4,0.9
		c2.7,0.8,5.5,2.1,7.9,4c2.4,1.9,4.4,4.2,5.8,6.7c1.4,2.4,2.4,4.9,3.1,7.2c0.2,0.6,0.4,1.2,0.5,1.8c0.2,0.6,0.3,1.2,0.4,1.7l0.7,3.2
		l0.4,1.6l0.3,1.6l0.6,3.3c0.6,4.4,1.1,8.8,1.2,13.2c0.2,4.4-0.1,8.9-0.6,13.3c-0.3,2.2-0.6,4.4-1,6.6c-0.2,1.1-0.4,2.2-0.7,3.3
		l-0.8,3.3c-1.2,4.3-2.6,8.6-4.5,12.6l-0.7,1.5l-0.8,1.5c-0.5,1-1,2-1.6,3c-1.1,1.9-2.2,3.9-3.5,5.7c-1.2,1.9-2.6,3.6-4,5.4
		c-0.7,0.9-1.4,1.7-2.2,2.6l-1.1,1.3l-1.2,1.2c-3,3.3-6.4,6.2-10,8.9l-2.7,2c-0.9,0.6-1.9,1.2-2.8,1.8c-1.8,1.2-3.8,2.3-5.7,3.4
		c-3.9,2-7.9,3.9-12,5.4c-8.2,3-16.8,4.8-25.4,5.7c-2.2,0.2-4.2,0.4-6.3,0.5l-6.3,0.4c-4.2,0.2-8.4,0.4-12.5,0.5
		c-16.7,0.5-33.3,0.5-49.9,0.7l-6.2,0.1c-2.1,0-4.1,0.1-6.1,0.3c-4.1,0.2-8.2,0.6-12.4,0.9c-4.2,0.3-8.3,0.7-12.5,0.8
		c-4.3,0.1-8.6-0.1-12.8-0.9c-8.4-1.5-16.4-5.4-22.7-11c-3.2-2.8-5.9-6-8.3-9.4c-0.6-0.9-1.2-1.7-1.7-2.6c-0.5-0.9-1-1.9-1.3-2.9
		c-0.7-2-1.3-4-2.1-5.9l0,0c0,0,0-0.1,0-0.1L651.5,685.1L651.5,685.1L651.5,685.1z M651.5,685.1L651.5,685.1L651.5,685.1l-2.1,2
		l0-0.1c0.9,1.9,1.6,3.9,2.4,5.7c0.4,0.9,0.9,1.8,1.5,2.7c0.5,0.8,1.2,1.6,1.9,2.4c2.6,3.2,5.4,6.2,8.7,8.7
		c3.2,2.5,6.7,4.6,10.5,6.1c3.7,1.5,7.7,2.5,11.7,3c4,0.5,8,0.5,12.1,0.2c4-0.3,8.2-0.9,12.3-1.4c4.1-0.5,8.2-1.1,12.4-1.6
		c2.1-0.2,4.2-0.4,6.3-0.6l6.2-0.5c16.6-1.2,33.2-1.7,49.7-2.9c4.1-0.3,8.2-0.7,12.3-1l6.1-0.6c2-0.2,4.1-0.5,6-0.8
		c7.9-1.1,15.6-3.1,22.9-6.1c14.6-5.8,27.2-15.9,35.2-28.9c8.1-13,11.6-28.5,10.7-43.9c-0.2-3.9-0.7-7.7-1.3-11.5l-0.6-2.9l-0.3-1.4
		l-0.4-1.4l-0.7-2.8c-0.1-0.5-0.2-0.9-0.4-1.3c-0.1-0.4-0.2-0.8-0.4-1.2c-0.5-1.6-1.2-3-1.9-4.1c-0.7-1.1-1.5-2-2.4-2.6
		c-0.9-0.6-1.9-1.1-3.2-1.5c-0.6-0.2-1.4-0.3-2.1-0.4l-2.8-0.3c-4.7-0.5-9-1.4-12.9-2.1l-2.9-0.5l-2.9-0.5l-6.4-1.1
		c-8.6-1.7-17-4-25.3-7.2c-8.2-3.2-16.2-7.1-23.7-12c-7.4-4.9-14.4-10.6-20.6-17c-6.2-6.4-11.8-13.4-16.5-20.8
		c-1.2-1.8-2.3-3.8-3.4-5.6c-0.5-0.9-1.2-1.9-1.7-2.8l-1.5-2.6c-2-3.5-4.1-7-6.3-10.5c-2.1-3.5-4.3-6.9-6.6-10.4
		c-2.2-3.3-4.4-6.5-6.7-9.6c-4.7-6.2-10-11.8-15.7-16.9c-2.9-2.5-5.9-4.9-9-7.1c-1.6-1.1-3.1-2.2-4.8-3.2c-1.6-1-3.4-2-5.1-3
		c-3.4-2.1-6.9-3.9-10.4-5.7l-1.3-0.7l-1.3-0.6L674,455l-2.7-1.3c-0.9-0.4-1.8-0.8-2.7-1.2c-3.6-1.5-7.3-3.1-11-4.3l-2.8-1l-1.4-0.5
		l-1.4-0.4l-5.6-1.7c-7.6-2.1-15.3-3.9-23.1-4.9c-15.6-2.4-31.5-2.3-47.2-0.8c-2,0.2-3.9,0.5-5.9,0.7c-2,0.3-3.9,0.5-5.9,0.8l-5.9,1
		c-1,0.2-1.9,0.3-2.9,0.6c-0.9,0.2-1.9,0.4-2.8,0.6c-7.4,1.7-14.6,4.2-21.3,7.5c-3.4,1.6-6.5,3.5-9.6,5.6c-3.1,2-6,4.3-8.7,6.8
		c-1.4,1.2-2.7,2.5-4,3.8c-0.7,0.7-1.3,1.4-1.9,2l-0.9,1c-0.2,0.2-0.4,0.5-0.7,0.8c-1.8,2.2-3.7,5.7-6.3,9.7l-2.2-13.3l2.9,2.3
		l-12.7,0.4c1.9-1.6,3.5-2.8,4.5-3.8c0.5-0.5,0.9-0.9,1.2-1.2l2.1-2.4c3-3.2,6.1-6.3,9.5-9.1c6.7-5.7,14.2-10.4,22.1-14.1
		c4-1.8,8-3.4,12.1-4.8c2-0.7,4.1-1.3,6.2-1.9c2-0.5,4-1.1,6.1-1.5c8.1-1.9,16.3-3.2,24.6-4.1c4.2-0.4,8.3-0.6,12.5-0.8
		c4.2-0.1,8.4-0.1,12.5,0.1c4.2,0.2,8.3,0.5,12.5,1c2.1,0.2,4.1,0.6,6.1,0.8c2,0.3,4.1,0.6,6.1,0.9c16.2,2.7,32.3,7,47.7,13.5
		l5.7,2.6c0.9,0.4,1.9,0.9,2.8,1.3l2.8,1.5l5.6,3l5.4,3.3l2.7,1.7c0.9,0.6,1.7,1.2,2.6,1.8l5.1,3.7c1.7,1.3,3.3,2.7,4.9,4
		c1.6,1.3,3.3,2.6,4.8,4.1c12.4,11.4,22.8,25,30.8,39.5l5.8,10.2l2.9,5.1l1.5,2.5l1.5,2.4c3.8,6.4,8.1,12.5,12.9,18.1
		c9.6,11.2,21.4,20.4,34.7,26.9c6.6,3.3,13.6,5.9,20.8,7.9l2.7,0.7l1.4,0.4l1.5,0.4l5.8,1.4c3.8,0.9,7.6,1.9,11.3,2.7
		c3.7,0.8,7.4,1.5,11.1,2l1.4,0.2l1.8,0.3c0.6,0.1,1.2,0.2,1.8,0.4c0.6,0.1,1.2,0.3,1.9,0.5c2.5,0.7,5.2,1.9,7.6,3.9
		c0.6,0.5,1.2,1.1,1.7,1.6c0.5,0.6,1,1.2,1.5,1.8c0.9,1.3,1.6,2.6,2.2,3.9c1.1,2.7,1.6,5.3,1.8,7.7l0.1,1.7c0,0.3,0,0.7,0.1,1.1
		c0.1,0.8,0.2,1.7,0.4,2.6c0.2,0.9,0.4,2,0.5,3.1l0.3,3.2c0.8,8.5,0.5,17.1-1.3,25.5c-1.7,8.4-5,16.5-9.5,23.8
		c-4.5,7.3-10.4,13.7-17.1,18.9c-6.7,5.2-14.3,9.2-22.1,12l-3,1.1l-2.9,0.9c-2,0.6-3.9,1.1-5.9,1.6c-4,1-8,1.7-12.1,2.3
		c-2,0.3-4.1,0.5-6.1,0.7c-1,0.1-2,0.2-3.1,0.2l-3,0.1l-11.9,0.5c-15.8,0.7-31.6,1.1-47.4,1.5l-23.7,0.7l-11.8,0.5
		c-4,0.2-8.1,0.1-12.1-0.4c-4-0.5-8-1.5-11.7-3.1c-3.8-1.5-7.3-3.7-10.4-6.2c-3.1-2.6-5.8-5.5-8.1-8.8l-1.7-2.5
		c-0.5-0.8-1.2-1.5-1.9-2.1C654.9,687.1,653.1,686.3,651.5,685.1z"/>
</g>
<g>
	<path d="M275.6,148.9c-2,1.3-3.9,3-6.1,3.9c-22,8.6-35.8,25.1-45.8,45.7c-9,18.5-17.7,37.2-27.7,55.1c-10.5,19-27,32.5-44.5,44.8
		c-2.5,1.7-5.6,2.5-8.5,3.7l-2-2.3c1.8-2.1,3.1-4.9,5.3-6.3c31-20.1,50.9-48.9,64.2-82.7c7.5-19.1,16.3-37.4,32.7-50.5
		c6.8-5.4,14.8-9.2,22.6-13.2c2.5-1.2,5.8-0.6,8.8-0.9C275,147.1,275.3,148,275.6,148.9L275.6,148.9z"/>
	<path d="M275.6,148.9c-1.7,1.4-3.1,3.1-5.1,4.3l-2.9,1.6c-0.9,0.5-1.9,1-2.8,1.6c-3.7,2.2-7.1,4.8-10.3,7.5
		c-3.2,2.7-6.1,5.7-8.8,8.9c-2.6,3.2-5.1,6.5-7.3,10c-2.2,3.5-4.2,7.1-6,10.9c-1.8,3.8-3.4,7.5-5.1,11.6c-1.7,4-3.3,8-5,12
		c-1.7,4-3.4,8-5.2,12c-3.6,8-7.2,16-11.2,23.9l-1.5,3l-0.8,1.5l-0.8,1.6c-1.1,2.1-2.3,4.2-3.6,6.2c-2.6,4-5.4,7.8-8.4,11.4
		c-3,3.6-6.2,7-9.6,10.2c-3.3,3.2-6.8,6.2-10.3,9.1c-3.5,2.9-7.1,5.6-10.7,8.2l-2.7,2c-0.3,0.2-1.4,1-2.1,1.4
		c-0.8,0.5-1.6,0.9-2.3,1.2c-2.9,1.3-5.1,1.9-6.3,2.5c-4,1.8-8.6,0.7-11.3-2.5l-0.2-0.2l-2-2.3c-3.2-3.7-3.2-9-0.2-12.7l0.1-0.1
		c0.3-0.4,0.8-1.1,1.5-2.1c0.7-1,1.6-2.3,3.1-3.9c0.8-0.8,1.7-1.6,2.8-2.3l1.4-0.9l2.6-1.7c1.7-1.1,3.3-2.4,5-3.6
		c1.7-1.2,3.2-2.5,4.8-3.8c6.4-5.2,12.3-10.9,17.7-17.1c5.5-6.2,10.4-12.9,15-19.8c1.2-1.7,2.2-3.5,3.3-5.3c1.1-1.8,2.1-3.6,3.2-5.5
		c1.1-1.8,2-3.7,3-5.5c1-1.8,1.9-3.8,2.9-5.7c1-1.9,1.8-3.8,2.7-5.8l1.4-2.9l1.4-3.1c1.9-4.1,3.9-8.2,6.1-12.2c2.2-4,4.5-8,7.1-11.8
		c2.6-3.8,5.5-7.5,8.6-10.9c3.1-3.4,6.5-6.6,10.2-9.5c1.9-1.4,3.7-2.8,5.7-4c2-1.2,4-2.4,6-3.4c4.1-2,8.2-3.7,12.3-5.3l3.1-1.2
		l0.8-0.3c0.3-0.1,0.6-0.2,0.9-0.3c0.6-0.2,1.3-0.3,1.9-0.3c2.4-0.1,4.5,0.4,6.7,0.5l0.1,0c0.1,0,0.3,0.1,0.3,0.2L275.6,148.9
		L275.6,148.9L275.6,148.9z M275.6,148.9L275.6,148.9L275.6,148.9l-1.2-2.6l0.4,0.2c-2.2,0.4-4.5,0.4-6.4,1
		c-0.5,0.1-0.9,0.3-1.3,0.5c-0.2,0.1-0.3,0.2-0.6,0.4l-0.7,0.5l-2.8,1.8c-3.7,2.4-7.4,4.7-10.8,7.3c-1.7,1.3-3.4,2.6-4.9,3.9
		c-1.5,1.4-3,2.9-4.5,4.4c-2.9,3-5.4,6.3-7.8,9.7c-2.4,3.4-4.5,7-6.4,10.7c-1.9,3.7-3.6,7.5-5.2,11.5c-1.6,3.9-3.1,7.9-4.5,12
		l-1.1,3.1l-1.1,3.2c-0.8,2.1-1.5,4.3-2.4,6.4c-6.6,16.9-15.7,33.2-27.4,47.7c-5.9,7.2-12.5,13.9-19.6,20c-1.8,1.5-3.6,3-5.5,4.4
		c-1.9,1.4-3.7,2.9-5.7,4.2l-2.9,2l-1.4,0.9l0.3-0.2c0,0-0.4,0.5-1,1.3c-0.5,0.8-1.3,1.9-2.4,3.2l-0.1-12.8l2,2.3l-11.5-2.7
		c2.8-1.1,4.8-1.7,5.9-2.2c0.3-0.1,0.4-0.2,0.6-0.3c0.2-0.1,0,0,0.6-0.4l2.6-1.8c3.4-2.5,6.8-4.9,10.1-7.5
		c6.5-5.1,12.6-10.5,18-16.3c2.7-2.9,5.2-6,7.5-9.2l1.7-2.4c0.6-0.8,1.1-1.6,1.6-2.5c0.3-0.4,0.5-0.8,0.8-1.3l0.8-1.4l1.6-2.8
		c4.3-7.4,8.5-14.9,12.6-22.4l6.2-11.4c2.1-3.8,4.2-7.6,6.3-11.4c2.1-3.7,4.3-7.8,6.8-11.6c2.5-3.8,5.2-7.5,8.1-11
		c2.9-3.5,6.2-6.8,9.6-9.7c0.9-0.7,1.7-1.5,2.6-2.2l2.7-2.1c1.9-1.3,3.7-2.6,5.7-3.7c3.9-2.3,7.9-4.2,12.1-5.7c1-0.4,2.1-0.7,3.2-1
		l3.1-0.9C271.8,151.1,273.6,149.8,275.6,148.9z"/>
</g>
<g>
	<path d="M300.1,195.1c-0.7,1.8-1,4-2.2,5.4c-11.2,13.1-15.9,29-20,45.2c-1.6,6.4-4.2,12.6-6.9,18.7c-7.7,17.8-20.5,30.4-40,33.5
		c-17.5,2.8-35.3,4.2-53,5.4c-5.4,0.3-10.9-2.4-16.4-3.8c0.2-1.4,0.3-2.8,0.5-4.2c3.5-0.2,7.1-1,10.6-0.5
		c21.1,3.1,41.6,0.5,61.9-5.7c11.9-3.7,21.4-10.5,26.5-21.9c5.1-11.6,8.7-23.8,13.4-35.5c4.1-10,8.5-20,13.5-29.5
		c2-3.8,6.4-6.3,9.6-9.4C298.4,193.6,299.3,194.4,300.1,195.1L300.1,195.1z"/>
	<path d="M300.1,195.1c-0.3,1-0.4,2.1-0.6,3.1c-0.1,0.5-0.3,1.1-0.5,1.6c-0.1,0.3-0.2,0.5-0.4,0.8c-0.2,0.3-0.3,0.5-0.5,0.7
		c-0.6,0.9-1.1,1.7-1.7,2.6c-0.5,0.9-1,1.8-1.5,2.7c-2,3.6-3.6,7.4-5,11.2c-2.8,7.7-4.5,15.6-6.1,23.7l-1.2,6.2
		c-0.4,2.2-1,4.4-1.6,6.5c-1.2,4.3-2.7,8.4-4.1,12.3c-1.5,4.2-3.4,8.4-5.8,12.4c-2.3,4-5.1,7.9-8.4,11.4c-3.3,3.5-7.1,6.7-11.4,9.2
		c-4.2,2.6-8.8,4.5-13.5,5.9c-1.2,0.4-2.4,0.7-3.5,0.9l-1.8,0.4c-0.6,0.1-1.1,0.2-1.6,0.3c-2.1,0.4-4.2,0.8-6.3,1.1
		c-4.2,0.7-8.5,1.3-12.7,1.9c-8.5,1.1-16.9,1.9-25.3,2.6c-2.1,0.2-4.2,0.3-6.3,0.5l-1.6,0.1l-0.5,0l-0.7,0c-0.4,0-0.9,0-1.3,0
		c-1.7,0-3.3-0.2-4.7-0.5c-2.9-0.5-5.2-1.3-7.3-1.9c-2.1-0.7-3.8-1.2-5.3-1.6c-5-1.2-8.2-5.9-7.6-10.9l0-0.1l0.5-4.2l0-0.2
		c0.6-4.8,4.6-8.4,9.4-8.6c1.4-0.1,3.3-0.3,5.8-0.5c1.2-0.1,2.6-0.1,4.2-0.1c0.8,0,1.6,0.1,2.4,0.2l1.4,0.2c3.7,0.5,7.3,0.8,11,1
		c7.4,0.4,14.9,0,22.3-0.9c7.5-0.9,14.9-2.4,22.3-4.4c1-0.2,1.7-0.5,2.6-0.7c0.8-0.3,1.6-0.5,2.4-0.8c1.6-0.6,3.1-1.2,4.6-2
		c2.9-1.5,5.6-3.2,7.9-5.4c2.3-2.2,4.2-4.7,5.8-7.6c1.7-3.3,3.3-6.9,4.9-10.5c1.6-3.6,3.1-7.3,4.7-11c1.6-3.7,3.3-7.5,5-11.2
		c1.8-3.7,3.6-7.3,5.5-10.9c1.9-3.6,3.9-7.2,6-10.7c1.1-1.7,2.1-3.5,3.2-5.2c0.5-0.9,1.1-1.7,1.7-2.6l0.9-1.3c0.3-0.5,0.7-1,1.1-1.4
		c1.5-1.7,3.3-3,5-4.1c1.7-1.1,3.4-2.1,5-3.3l0.1-0.1c0.2-0.1,0.4-0.1,0.5,0.1L300.1,195.1L300.1,195.1L300.1,195.1z M300.1,195.1
		L300.1,195.1L300.1,195.1L300.1,195.1l-2.9-1.9l0.6,0c-1.3,1.6-2.8,3-4.2,4.4c-1.4,1.4-2.6,2.9-3.5,4.4c-0.2,0.4-0.4,0.8-0.5,1.1
		l-0.6,1.4l-1.1,2.8c-0.7,1.9-1.4,3.7-2.1,5.6c-1.4,3.7-2.7,7.5-4,11.3c-1.3,3.8-2.5,7.6-3.7,11.4c-1.2,3.8-2.3,7.6-3.3,11.4
		c-1.1,3.9-2.2,7.8-3.4,11.7c-1.2,4-2.5,7.8-4.1,11.9c-1.8,4.4-4.3,8.7-7.6,12.3c-3.2,3.7-7.1,6.8-11.1,9.3c-2,1.2-4.1,2.3-6.3,3.3
		c-1.1,0.5-2.1,0.9-3.2,1.3c-1.1,0.4-2.2,0.8-3.2,1.1c-8,2.7-16.2,4.8-24.7,6.2c-2.1,0.4-4.2,0.7-6.4,0.9c-2.1,0.2-4.3,0.5-6.4,0.6
		c-4.3,0.3-8.6,0.4-13,0.3c-4.3-0.1-8.7-0.4-13-1l-1.6-0.2c-0.2,0-0.3,0-0.6,0c-0.5,0-1.1,0-1.8,0.1c-1.5,0.1-3.6,0.4-6.2,0.6
		l9.4-8.8l-0.5,4.2l-7.5-10.9c2.6,0.7,4.8,1.4,6.7,2c1.9,0.6,3.5,1.1,4.8,1.4c0.6,0.1,1.2,0.2,1.5,0.2c0.1,0,0.2,0,0.3,0l0.1,0
		c0,0,0.1,0,0.1,0l0.2,0l1.6-0.1l6.2-0.4c8.3-0.4,16.5-1,24.6-1.7c4.1-0.3,8.2-0.7,12.2-1.2l6.1-0.7c0.5-0.1,1-0.1,1.5-0.2l1.3-0.2
		l1.3-0.2c0.4-0.1,0.8-0.2,1.3-0.3c6.8-1.5,13-4.5,18.3-9.3c2.6-2.4,5.1-5.1,7.3-8.1c2.2-3,4.1-6.3,5.9-9.8
		c1.9-3.7,3.6-7.3,5.2-10.9c0.8-1.8,1.5-3.6,2.1-5.5c0.7-1.9,1.3-4,2-6c2.8-8,6.1-16.1,10.5-23.6c2.2-3.7,4.7-7.3,7.5-10.5
		c0.7-0.8,1.5-1.6,2.2-2.4c0.7-0.8,1.5-1.5,2.3-2.2C298.5,199.1,299.1,196.9,300.1,195.1z"/>
</g>
</svg>
